<svg width="40" height="40" viewBox="0 0 40 40" fill="none" xmlns="http://www.w3.org/2000/svg">
<circle cx="20" cy="20" r="19.5" fill="white" stroke="#E9F1FF"/>
<path d="M28.4852 20.75C28.8994 20.75 29.2352 20.4142 29.2352 20C29.2352 19.5858 28.8994 19.25 28.4852 19.25L28.4852 20.75ZM10.9843 19.4697C10.6914 19.7626 10.6914 20.2374 10.9843 20.5303L15.7573 25.3033C16.0502 25.5962 16.5251 25.5962 16.818 25.3033C17.1109 25.0104 17.1109 24.5355 16.818 24.2426L12.5753 20L16.818 15.7574C17.1109 15.4645 17.1109 14.9896 16.818 14.6967C16.5251 14.4038 16.0502 14.4038 15.7573 14.6967L10.9843 19.4697ZM28.4852 19.25L11.5147 19.25L11.5147 20.75L28.4852 20.75L28.4852 19.25Z" fill="black"/>
</svg>
