<svg width="25" height="25" viewBox="0 0 25 25" fill="none" xmlns="http://www.w3.org/2000/svg">
<path d="M9.45702 21.2714V18.2047C9.457 17.4246 10.0929 16.7908 10.8808 16.7856H13.7669C14.5585 16.7856 15.2003 17.4209 15.2003 18.2047V18.2047V21.2809C15.2001 21.9432 15.7341 22.4845 16.4028 22.5H18.3269C20.2449 22.5 21.7998 20.9607 21.7998 19.0618V19.0618V10.3378C21.7896 9.59083 21.4353 8.88935 20.8378 8.43303L14.2575 3.1853C13.1047 2.27157 11.466 2.27157 10.3132 3.1853L3.76183 8.44256C3.16206 8.89702 2.80719 9.59967 2.7998 10.3474V19.0618C2.7998 20.9607 4.35468 22.5 6.27272 22.5H8.19677C8.88216 22.5 9.43778 21.9499 9.43778 21.2714V21.2714" stroke="#737791" stroke-width="1.5" stroke-linecap="round" stroke-linejoin="round"/>
</svg>
