<svg width="20" height="20" viewBox="0 0 20 20" fill="none" xmlns="http://www.w3.org/2000/svg">
<g clip-path="url(#clip0_55_62)">
<path d="M10 17.6478C14.2238 17.6478 17.6479 14.2238 17.6479 9.99999C17.6479 5.7762 14.2238 2.35214 10 2.35214C5.77623 2.35214 2.35217 5.7762 2.35217 9.99999C2.35217 14.2238 5.77623 17.6478 10 17.6478Z" fill="#69FBC2"/>
<path d="M10 0C4.47332 0 0 4.47254 0 10C0 15.5267 4.47254 20 10 20C15.5267 20 20 15.5275 20 10C20 4.47332 15.5275 0 10 0ZM10 19.2188C4.91676 19.2188 0.78125 15.0832 0.78125 10C0.78125 4.91676 4.91676 0.78125 10 0.78125C15.0832 0.78125 19.2188 4.91676 19.2188 10C19.2188 15.0832 15.0832 19.2188 10 19.2188Z" fill="#00008B"/>
<path d="M9.80185 7.44636C10.6662 7.44636 11.3694 6.74315 11.3694 5.87882C11.3694 5.01448 10.6662 4.31128 9.80185 4.31128C8.93752 4.31128 8.23431 5.01448 8.23431 5.87882C8.23431 6.74315 8.93752 7.44636 9.80185 7.44636ZM9.80185 5.09253C10.2354 5.09253 10.5881 5.44526 10.5881 5.87882C10.5881 6.31237 10.2354 6.66511 9.80185 6.66511C9.3683 6.66511 9.01556 6.31237 9.01556 5.87882C9.01556 5.44526 9.3683 5.09253 9.80185 5.09253Z" fill="#00008B"/>
<path d="M12.1557 12.9419H11.3694V8.62491C11.3694 8.40921 11.1945 8.23428 10.9788 8.23428H8.23264C8.01693 8.23428 7.84201 8.40921 7.84201 8.62491V10.1941C7.84201 10.4098 8.01693 10.5848 8.23264 10.5848H8.62662V12.9419H7.84033C7.62463 12.9419 7.44971 13.1168 7.44971 13.3326V14.9018C7.44971 15.1175 7.62463 15.2924 7.84033 15.2924H12.1557C12.3714 15.2924 12.5463 15.1175 12.5463 14.9018V13.3326C12.5463 13.1168 12.3714 12.9419 12.1557 12.9419ZM11.7651 14.5111H8.23096V13.7232H9.01725C9.23295 13.7232 9.40787 13.5482 9.40787 13.3325V10.1941C9.40787 9.97842 9.23295 9.8035 9.01725 9.8035H8.62326V9.01553H10.5881V13.3326C10.5881 13.5483 10.7631 13.7232 10.9788 13.7232H11.7651V14.5111Z" fill="#00008B"/>
</g>
<defs>
<clipPath id="clip0_55_62">
<rect width="20" height="20" fill="white"/>
</clipPath>
</defs>
</svg>
