<svg width="42" height="42" viewBox="0 0 42 42" fill="none" xmlns="http://www.w3.org/2000/svg">
<circle cx="21" cy="21" r="20.5" fill="white" stroke="#E9F1FF"/>
<path fill-rule="evenodd" clip-rule="evenodd" d="M13.6201 15.6835C13.6201 13.3881 13.6446 12.6232 16.6767 12.6232C19.7088 12.6232 19.7334 13.3881 19.7334 15.6835C19.7334 17.9789 19.7431 18.7438 16.6767 18.7438C13.6104 18.7438 13.6201 17.9789 13.6201 15.6835Z" stroke="#002055" stroke-width="1.5" stroke-linecap="round" stroke-linejoin="round"/>
<path fill-rule="evenodd" clip-rule="evenodd" d="M23.2267 15.6835C23.2267 13.3881 23.2513 12.6232 26.2834 12.6232C29.3155 12.6232 29.3401 13.3881 29.3401 15.6835C29.3401 17.9789 29.3497 18.7438 26.2834 18.7438C23.2171 18.7438 23.2267 17.9789 23.2267 15.6835Z" stroke="#002055" stroke-width="1.5" stroke-linecap="round" stroke-linejoin="round"/>
<path fill-rule="evenodd" clip-rule="evenodd" d="M13.6201 25.3017C13.6201 23.0063 13.6446 22.2414 16.6767 22.2414C19.7088 22.2414 19.7334 23.0063 19.7334 25.3017C19.7334 27.5972 19.7431 28.3621 16.6767 28.3621C13.6104 28.3621 13.6201 27.5972 13.6201 25.3017Z" stroke="#002055" stroke-width="1.5" stroke-linecap="round" stroke-linejoin="round"/>
<path fill-rule="evenodd" clip-rule="evenodd" d="M23.2267 25.3017C23.2267 23.0063 23.2513 22.2414 26.2834 22.2414C29.3155 22.2414 29.3401 23.0063 29.3401 25.3017C29.3401 27.5972 29.3497 28.3621 26.2834 28.3621C23.2171 28.3621 23.2267 27.5972 23.2267 25.3017Z" stroke="#002055" stroke-width="1.5" stroke-linecap="round" stroke-linejoin="round"/>
</svg>
