<svg width="50" height="50" viewBox="0 0 50 50" fill="none" xmlns="http://www.w3.org/2000/svg">
<path fill-rule="evenodd" clip-rule="evenodd" d="M3.50303 28.8826C2.1166 28.8826 0.984863 29.9318 0.984863 31.2107V44.3464C0.984863 45.6254 2.1167 46.6718 3.50303 46.6718H6.19551C7.58193 46.6718 8.71367 45.6254 8.71367 44.3464V42.8044V32.75V31.2108C8.71367 29.9318 7.58184 28.8827 6.19551 28.8827H3.50303V28.8826Z" fill="#A0E5A5"/>
<path fill-rule="evenodd" clip-rule="evenodd" d="M29.4265 30.2529H13.9272C13.7058 30.2529 13.4844 30.264 13.2659 30.2861C11.4008 30.4661 9.76531 31.399 8.71375 32.75V42.8046L16.343 46.2263C18.1528 46.8906 20.8343 46.9267 27.2653 46.9599C32.4566 46.9654 33.1346 46.9654 34.1198 46.9654C36.5245 46.9654 37.4681 46.7412 38.6 45.6228L48.1082 36.8388C48.7114 36.2823 49.0158 35.546 49.0158 34.8096C49.0158 34.0731 48.7114 33.3368 48.1082 32.7776C47.1508 31.8918 45.709 31.7091 44.5495 32.2239C44.2451 32.3596 43.96 32.545 43.7083 32.7776L37.0475 38.9289C36.4969 39.4383 35.3678 39.5822 34.1308 39.5795C31.0786 39.5712 26.1667 39.5629 23.1144 39.5573C21.811 39.5573 20.7457 38.5746 20.7457 37.3703C20.7457 36.166 21.8111 35.1806 23.1144 35.1806H29.4265C30.896 35.1806 32.0941 34.0732 32.0941 32.7167C32.0941 32.2986 31.9806 31.9028 31.7787 31.5567C31.3276 30.7816 30.4421 30.2529 29.4265 30.2529Z" fill="#FFDCD5"/>
<path fill-rule="evenodd" clip-rule="evenodd" d="M20.671 14.7807C19.542 16.8846 18.0781 18.7034 16.2767 19.7775C15.5573 20.2094 15.3635 20.2094 14.6412 19.7775C14.1846 19.5063 13.7502 19.1852 13.3378 18.8225C12.6737 20.6413 12.3112 22.6067 12.3112 24.6554C12.3112 26.6292 12.6488 28.5228 13.2658 30.2861C13.4845 30.264 13.7059 30.2529 13.9272 30.2529H29.4265C30.4421 30.2529 31.3276 30.7816 31.7786 31.5568C31.9807 31.9028 32.0941 32.2987 32.0941 32.7168C32.0941 34.0732 30.8958 35.1807 29.4265 35.1807H23.1144C21.811 35.1807 20.7456 36.1662 20.7456 37.3704C20.7456 38.5746 21.8111 39.5574 23.1144 39.5574C26.1666 39.563 31.0785 39.5713 34.1308 39.5796C35.3677 39.5823 36.4968 39.4384 37.0475 38.929L43.7082 32.7777C43.9601 32.5452 44.245 32.3597 44.5494 32.224C45.684 29.9457 46.3233 27.3739 46.3233 24.6554C46.3233 15.2597 38.7106 7.64111 29.3186 7.64111C26.8474 7.64111 24.5008 8.16982 22.3811 9.1166C22.2594 10.9853 21.6645 12.9286 20.671 14.7807Z" fill="#FFCD69"/>
<path fill-rule="evenodd" clip-rule="evenodd" d="M15.4603 3.03455L9.07358 6.48113C8.24067 6.92957 8.01372 7.04031 8.00542 8.04519C7.98608 10.3125 8.64741 12.7154 9.86772 14.991C10.7726 16.6769 11.8767 18.1912 13.1801 19.3317C13.6256 19.7193 14.0933 20.0626 14.5832 20.356C15.3552 20.8183 15.5627 20.8183 16.3375 20.356C18.2691 19.2016 19.8381 17.2527 21.0501 14.991C22.1156 13.0061 22.7576 10.9216 22.8875 8.91453C22.9069 8.6238 22.9152 8.33318 22.9124 8.04529C22.9041 7.04041 22.68 6.92966 21.847 6.48123L15.4603 3.03455Z" fill="#A0E5A5"/>
<path d="M48.777 32.0547C48.0522 31.3844 47.1193 31.0222 46.169 30.966C46.9245 28.9573 47.3082 26.8423 47.3082 24.6554C47.3082 20.7916 46.1044 17.1103 43.8269 14.0095C43.5049 13.571 42.8884 13.4767 42.4501 13.7988C42.0117 14.1208 41.9174 14.7371 42.2394 15.1755C44.2669 17.9359 45.3385 21.214 45.3385 24.6554C45.3385 27.0538 44.8218 29.3544 43.805 31.4996C43.5325 31.6524 43.2752 31.8367 43.04 32.0542L36.3787 38.206C36.2798 38.2975 35.8286 38.5947 34.165 38.5947C34.1546 38.5947 34.144 38.5947 34.1335 38.5947C31.5185 38.5875 27.5387 38.5805 24.5323 38.575L23.1144 38.5726C22.3513 38.5726 21.7305 38.0332 21.7305 37.3704C21.7305 36.7173 22.3643 36.1655 23.1144 36.1655H29.4265C31.4404 36.1655 33.0789 34.6185 33.0789 32.7169C33.0789 32.5397 33.0645 32.3656 33.0371 32.1954C34.6064 31.4901 35.6607 29.923 35.6607 28.1297C35.6607 25.671 33.6734 23.6706 31.2307 23.6706H27.4312C26.0593 23.6706 24.9433 22.5527 24.9433 21.1783C24.9433 19.8057 26.0594 18.6889 27.4312 18.6889H29.3078H29.3103H34.6759C35.2198 18.6889 35.6607 18.248 35.6607 17.704C35.6607 17.1602 35.2198 16.7193 34.6759 16.7193H30.2976L30.3034 14.3486C30.3048 13.8045 29.8649 13.3626 29.321 13.3613C29.3202 13.3613 29.3193 13.3613 29.3186 13.3613C28.7758 13.3613 28.3352 13.8006 28.3337 14.3436L28.3278 16.7193H27.4313C24.9733 16.7193 22.9736 18.7196 22.9736 21.1783C22.9736 23.6387 24.9734 25.6403 27.4313 25.6403H31.2308C32.5645 25.6403 33.6911 26.7803 33.6911 28.1297C33.6911 29.139 33.0586 30.0442 32.1537 30.4262C31.4843 29.7164 30.51 29.2682 29.4266 29.2682H13.971C13.5231 27.7744 13.2961 26.2263 13.2961 24.6555C13.2961 23.4059 13.439 22.174 13.7204 20.9774C13.8384 21.0548 13.9572 21.1294 14.0771 21.2011C14.6191 21.5258 15.0388 21.6882 15.459 21.6882C15.8789 21.6882 16.2992 21.526 16.8429 21.2016C18.7895 20.0382 20.497 18.1054 21.9182 15.4567C22.9535 13.5259 23.5959 11.5289 23.8135 9.60012C25.5731 8.95422 27.4221 8.6261 29.3188 8.6261C31.5824 8.6261 33.7687 9.0884 35.817 10C35.9472 10.0579 36.0831 10.0854 36.2169 10.0854C36.594 10.0854 36.9539 9.86751 37.1172 9.50071C37.3383 9.00383 37.1148 8.4217 36.6179 8.20051C34.3159 7.176 31.8601 6.65657 29.3187 6.65657C27.4488 6.65657 25.6198 6.94094 23.8629 7.50139C23.7239 6.43118 23.171 6.07561 22.3381 5.62737L15.928 2.16819C15.6361 2.01067 15.2845 2.01067 14.9926 2.16819L8.57891 5.62903C7.6207 6.14475 7.03291 6.53694 7.02051 8.03694C7 10.4382 7.68447 13.0039 8.9998 15.4568C9.90146 17.1372 10.9196 18.5286 12.0415 19.6197C11.5671 21.2453 11.3263 22.9362 11.3263 24.6554C11.3263 26.307 11.5497 27.9366 11.9914 29.5149C11.1472 29.7332 10.3478 30.0919 9.63252 30.5716C9.3166 29.0496 7.8959 27.8978 6.19551 27.8978H3.50303C1.57148 27.8978 0 29.3839 0 31.2108V44.3465C0 46.1718 1.57148 47.6568 3.50303 47.6568H6.19551C8.12705 47.6568 9.69854 46.1718 9.69854 44.3465V44.3256L15.9399 47.1248C15.9608 47.1342 15.9821 47.1428 16.0036 47.1506C17.9377 47.8608 20.4064 47.9091 27.2643 47.9446C32.4563 47.9501 33.1345 47.9501 34.1197 47.9501C36.5992 47.9501 37.8672 47.7254 39.2801 46.3351C42.2195 43.6178 45.1592 40.9029 48.1009 38.186L48.7759 37.5625C49.5652 36.8344 49.9999 35.8561 49.9999 34.8081C50 33.7603 49.5653 32.782 48.777 32.0547ZM7.72891 44.3465C7.72891 45.0858 7.04111 45.6871 6.19561 45.6871H3.50303C2.65752 45.6871 1.96973 45.0858 1.96973 44.3465V31.2108C1.96973 30.4825 2.67187 29.8674 3.50303 29.8674H6.19551C7.02666 29.8674 7.72881 30.4826 7.72881 31.2108L7.72891 44.3465ZM10.7356 14.5256C9.57607 12.3634 8.97246 10.1254 8.99023 8.05335C8.99228 7.80198 9.01094 7.69085 9.02109 7.64846C9.0999 7.58547 9.31807 7.46799 9.5125 7.36331L15.4604 4.15374L21.3803 7.34836L21.4046 7.36145C21.5992 7.46624 21.8177 7.58381 21.8969 7.64709C21.907 7.68977 21.9256 7.80168 21.9276 8.05491C21.9479 10.1211 21.3442 12.3586 20.1822 14.5254C18.9321 16.8554 17.4686 18.5326 15.8328 19.5104C15.6147 19.6406 15.5092 19.6908 15.4595 19.7102C15.4101 19.6907 15.3052 19.6406 15.0892 19.5113C15.0889 19.5111 15.0887 19.5109 15.0884 19.5108C13.4724 18.5449 11.9672 16.821 10.7356 14.5256ZM47.44 36.1154L46.7646 36.7391C43.8188 39.4599 40.8752 42.1784 37.9315 44.8995C37.9234 44.907 37.9155 44.9145 37.9078 44.9222C37.078 45.7421 36.4803 45.9805 34.1199 45.9805C33.1349 45.9805 32.457 45.9805 27.2706 45.9749C20.9938 45.9424 18.3589 45.9054 16.7135 45.3128L9.69873 42.1667V33.1055C10.7391 31.9307 12.2955 31.2377 13.9273 31.2377H29.4267C30.072 31.2377 30.6328 31.5591 30.915 32.0289C30.9204 32.0388 30.9255 32.0488 30.9312 32.0583C31.0441 32.257 31.1094 32.4801 31.1094 32.7168C31.1094 33.5323 30.3545 34.1957 29.4267 34.1957H23.1145C21.2653 34.1957 19.7609 35.6199 19.7609 37.3703C19.7609 39.1193 21.2654 40.5421 23.1128 40.5421L24.529 40.5447C27.5347 40.55 31.5138 40.5572 34.1288 40.5642C34.1408 40.5643 34.1525 40.5643 34.1645 40.5643C35.9144 40.5642 37.0438 40.2739 37.7158 39.6523L44.3771 33.5006C45.2071 32.7329 46.6096 32.7328 47.4406 33.5015C47.821 33.8525 48.0305 34.3165 48.0305 34.8081C48.0303 35.2999 47.8208 35.764 47.44 36.1154Z" fill="black"/>
<path d="M40.0085 12.4074C40.2605 12.4074 40.5126 12.3113 40.7049 12.1191C41.0895 11.7344 41.0895 11.1109 40.7049 10.7262L40.7021 10.7235C40.3176 10.3391 39.6953 10.3402 39.3107 10.7249C38.9261 11.1095 38.9275 11.7344 39.3121 12.1192C39.5044 12.3113 39.7564 12.4074 40.0085 12.4074Z" fill="black"/>
<path d="M15.0284 14.1875C15.285 14.1875 15.541 14.0879 15.7338 13.8902L19.2095 10.3246C19.5891 9.935 19.5812 9.31147 19.1916 8.93188C18.8022 8.55219 18.1786 8.5601 17.799 8.94965L14.9971 11.8242L14.0247 10.914C13.6277 10.5423 13.0045 10.5627 12.6326 10.9601C12.261 11.3572 12.2816 11.9804 12.6786 12.3521L14.3556 13.9218C14.5453 14.0994 14.7871 14.1875 15.0284 14.1875Z" fill="black"/>
</svg>
