<svg width="24" height="24" viewBox="0 0 24 24" fill="none" xmlns="http://www.w3.org/2000/svg">
<mask id="path-1-inside-1_85_719" fill="white">
<path d="M23.7446 14.9031C23.2881 14.2322 22.3688 14.0547 21.6959 14.5069L18.633 16.5567L18.6241 10.1765L19.6882 11.1733C19.9145 11.3852 20.2095 11.5019 20.5192 11.5019C20.5198 11.5019 20.5205 11.5019 20.5211 11.5019C20.8555 11.5014 21.1784 11.3612 21.4069 11.1172C21.629 10.8802 21.7455 10.5709 21.7349 10.2463C21.7243 9.92161 21.5879 9.62053 21.3508 9.39848L19.3335 7.50876C19.1955 7.37939 18.9787 7.38647 18.8493 7.52456C18.72 7.66265 18.7271 7.87941 18.8651 8.00878L20.8824 9.8985C20.9859 9.99544 21.0454 10.1269 21.0501 10.2686C21.0547 10.4103 21.0038 10.5453 20.9069 10.6488C20.8056 10.7569 20.6683 10.8165 20.52 10.8167C20.5198 10.8167 20.5195 10.8167 20.5192 10.8167C20.3841 10.8167 20.2553 10.7658 20.1566 10.6732L20.1565 10.6732L12.1464 3.1695C12.0144 3.04589 11.809 3.04608 11.6774 3.17015L3.68808 10.6963C3.58491 10.7935 3.45 10.8444 3.30825 10.8405C3.1665 10.8363 3.03492 10.7771 2.9377 10.6738C2.84048 10.5706 2.78925 10.4357 2.79352 10.294C2.79773 10.1523 2.85694 10.0207 2.96011 9.92348L11.5465 1.83483C11.7501 1.64306 12.0694 1.64259 12.2734 1.83384L17.2969 6.53972C17.4349 6.66905 17.6517 6.66201 17.7811 6.52392C17.9104 6.38583 17.9033 6.16908 17.7653 6.0397L12.7419 1.33383C12.2744 0.895826 11.543 0.896811 11.0767 1.33612L8.32805 3.9255L8.3273 3.46364C8.32711 3.31805 8.2702 3.18126 8.16712 3.07851C8.06423 2.9759 7.92764 2.91942 7.78233 2.91942C7.78205 2.91942 7.78181 2.91942 7.78153 2.91942L5.81527 2.92219C5.66967 2.92237 5.53294 2.97928 5.43014 3.08236C5.32739 3.18544 5.27086 3.32236 5.27109 3.468L5.27653 6.8002L2.49033 9.42487C2.25389 9.64758 2.11838 9.94903 2.10867 10.2737C2.09897 10.5983 2.2163 10.9073 2.439 11.1437C2.66166 11.3801 2.96311 11.5157 3.28781 11.5254C3.30023 11.5258 3.31266 11.526 3.32508 11.526C3.63609 11.526 3.93061 11.4092 4.15791 11.195L5.21958 10.1949L5.2238 13.2085C4.8803 13.1585 4.53277 13.1323 4.18364 13.1323H3.59747V12.9269C3.59747 12.2373 3.03642 11.6762 2.34684 11.6762H1.25063C0.561047 11.6762 0 12.2372 0 12.9268V18.2948C0 18.484 0.153375 18.6374 0.342562 18.6374C0.53175 18.6374 0.685125 18.484 0.685125 18.2948V12.9268C0.685125 12.615 0.938812 12.3613 1.25063 12.3613H2.3468C2.65861 12.3613 2.9123 12.615 2.9123 12.9268V13.4748V20.4965V21.039C2.9123 21.3509 2.65861 21.6045 2.3468 21.6045H1.25063C0.938812 21.6045 0.685125 21.3509 0.685125 21.039V20.4396C0.685125 20.2504 0.53175 20.097 0.342562 20.097C0.153375 20.097 0 20.2504 0 20.4396V21.039C0 21.7286 0.561047 22.2897 1.25063 22.2897H2.3468C3.03638 22.2897 3.59742 21.7287 3.59742 21.039V20.9925L8.61417 22.8923C8.62345 22.8958 8.63287 22.8989 8.64244 22.9015C8.86055 22.9631 9.07856 22.994 9.29381 22.994C9.41025 22.994 9.52589 22.985 9.64036 22.9669L17.0129 21.9041C17.0146 21.9039 17.0163 21.9036 17.0181 21.9033C17.6449 21.8032 18.2362 21.5383 18.7281 21.1371C18.7323 21.1336 18.7365 21.13 18.7406 21.1263L23.5036 16.8425C24.0583 16.3501 24.1619 15.5163 23.7446 14.9031ZM7.64236 3.60478L7.64395 4.56994L5.96058 6.15572L5.95641 3.60708L7.64236 3.60478ZM11.9129 3.8895L17.9381 9.53381L17.9485 17.0147L16.9786 17.6639L15.9516 17.6062L15.9244 17.3334C15.8288 16.3726 15.1195 15.5997 14.1816 15.4152L14.1754 10.9647C14.175 10.6231 13.8969 10.3456 13.5554 10.3456C13.5551 10.3456 13.5549 10.3456 13.5546 10.3456L10.2895 10.3502C10.1239 10.3504 9.9683 10.4151 9.85139 10.5324C9.73444 10.6496 9.67017 10.8054 9.67041 10.971L9.67584 14.8514C9.02911 14.7035 8.41158 14.4593 7.83422 14.1216C7.76217 14.0795 7.68942 14.0388 7.61606 13.9992C7.58747 13.9838 7.55841 13.9693 7.52958 13.9543C7.48495 13.931 7.44042 13.9075 7.39533 13.8852C7.35942 13.8674 7.32309 13.8505 7.28691 13.8333C7.24852 13.815 7.21017 13.7966 7.1715 13.779C7.13213 13.7612 7.09242 13.7442 7.05277 13.727C7.01653 13.7114 6.9803 13.6956 6.94383 13.6806C6.90305 13.6637 6.86203 13.6476 6.82097 13.6315C6.78455 13.6172 6.74808 13.6031 6.71147 13.5894C6.67083 13.5742 6.63 13.5595 6.58908 13.5451C6.55069 13.5316 6.51225 13.5184 6.47363 13.5055C6.43444 13.4924 6.39516 13.4796 6.35569 13.4672C6.31364 13.4539 6.27141 13.4413 6.22913 13.4287C6.1928 13.4181 6.15652 13.4074 6.12 13.3972C6.07233 13.384 6.02442 13.3716 5.97647 13.3593C5.95402 13.3535 5.9317 13.347 5.90911 13.3414L5.90381 9.55026L11.9129 3.8895ZM13.4964 15.3295L10.6312 14.9996L10.3612 14.9685L10.3557 11.0352L13.4904 11.0308L13.4964 15.3295ZM23.0472 16.3317L18.2888 20.6113C17.8923 20.9328 17.4167 21.1455 16.9125 21.2264L9.54319 22.2887C9.54164 22.2889 9.54014 22.2892 9.53859 22.2894L9.53348 22.2902C9.31022 22.3255 9.07772 22.3106 8.84236 22.246L3.59747 20.2598V13.8173H4.18364C4.68262 13.8173 5.17823 13.875 5.66086 13.9868C5.67881 13.991 5.69672 13.9953 5.71463 13.9996C5.77392 14.0139 5.83308 14.0286 5.89195 14.0445C5.89711 14.046 5.90222 14.0475 5.90738 14.0489C5.96639 14.065 6.02517 14.082 6.08377 14.0998C6.09427 14.103 6.10481 14.1061 6.11527 14.1093C6.17761 14.1286 6.23967 14.1487 6.30141 14.1698C6.30778 14.172 6.31411 14.1742 6.32048 14.1765C6.44906 14.2208 6.57638 14.2693 6.70209 14.3217C6.70894 14.3245 6.71578 14.3274 6.72262 14.3303C6.7853 14.3566 6.84759 14.3839 6.90947 14.4122C6.91111 14.4129 6.9128 14.4137 6.91444 14.4145C6.97425 14.442 7.03364 14.4705 7.09266 14.4998C7.09959 14.5032 7.10658 14.5066 7.11352 14.5101C7.17117 14.5389 7.22836 14.5687 7.28522 14.5993C7.29595 14.6051 7.30664 14.611 7.31738 14.6168C7.37475 14.6481 7.4318 14.6799 7.48828 14.713C8.30348 15.1898 9.19092 15.4987 10.126 15.631C10.1289 15.6315 10.1318 15.6318 10.1348 15.6322L13.973 16.074C13.9942 16.0771 14.0153 16.0806 14.0363 16.0845C14.6013 16.1907 15.0473 16.6082 15.1965 17.1519C15.2186 17.2324 15.2341 17.3158 15.2427 17.4012L15.2579 17.5545L8.06447 16.9243C7.87613 16.9078 7.70981 17.0472 7.69331 17.2356C7.67677 17.4241 7.81622 17.5903 8.00466 17.6068L15.6097 18.2731C15.6116 18.2732 15.6134 18.2732 15.6151 18.2733C15.6169 18.2735 15.6187 18.2737 15.6205 18.2739L17.0547 18.3544C17.0611 18.3547 17.0675 18.3549 17.0739 18.3549C17.0807 18.3549 17.0874 18.3538 17.0941 18.3534C17.1018 18.3529 17.1094 18.3526 17.117 18.3517C17.1272 18.3504 17.1372 18.3482 17.1473 18.346C17.1544 18.3444 17.1616 18.3432 17.1687 18.3412C17.1796 18.338 17.1902 18.3337 17.2008 18.3295C17.2065 18.3272 17.2125 18.3255 17.2181 18.3228C17.2341 18.3154 17.2496 18.3069 17.2644 18.297L18.4819 17.4822L18.482 17.4821L22.0774 15.0759C22.4392 14.8327 22.9329 14.9281 23.1781 15.2885C23.4023 15.6179 23.3467 16.0657 23.0472 16.3317Z"/>
</mask>
<path d="M23.7446 14.9031C23.2881 14.2322 22.3688 14.0547 21.6959 14.5069L18.633 16.5567L18.6241 10.1765L19.6882 11.1733C19.9145 11.3852 20.2095 11.5019 20.5192 11.5019C20.5198 11.5019 20.5205 11.5019 20.5211 11.5019C20.8555 11.5014 21.1784 11.3612 21.4069 11.1172C21.629 10.8802 21.7455 10.5709 21.7349 10.2463C21.7243 9.92161 21.5879 9.62053 21.3508 9.39848L19.3335 7.50876C19.1955 7.37939 18.9787 7.38647 18.8493 7.52456C18.72 7.66265 18.7271 7.87941 18.8651 8.00878L20.8824 9.8985C20.9859 9.99544 21.0454 10.1269 21.0501 10.2686C21.0547 10.4103 21.0038 10.5453 20.9069 10.6488C20.8056 10.7569 20.6683 10.8165 20.52 10.8167C20.5198 10.8167 20.5195 10.8167 20.5192 10.8167C20.3841 10.8167 20.2553 10.7658 20.1566 10.6732L20.1565 10.6732L12.1464 3.1695C12.0144 3.04589 11.809 3.04608 11.6774 3.17015L3.68808 10.6963C3.58491 10.7935 3.45 10.8444 3.30825 10.8405C3.1665 10.8363 3.03492 10.7771 2.9377 10.6738C2.84048 10.5706 2.78925 10.4357 2.79352 10.294C2.79773 10.1523 2.85694 10.0207 2.96011 9.92348L11.5465 1.83483C11.7501 1.64306 12.0694 1.64259 12.2734 1.83384L17.2969 6.53972C17.4349 6.66905 17.6517 6.66201 17.7811 6.52392C17.9104 6.38583 17.9033 6.16908 17.7653 6.0397L12.7419 1.33383C12.2744 0.895826 11.543 0.896811 11.0767 1.33612L8.32805 3.9255L8.3273 3.46364C8.32711 3.31805 8.2702 3.18126 8.16712 3.07851C8.06423 2.9759 7.92764 2.91942 7.78233 2.91942C7.78205 2.91942 7.78181 2.91942 7.78153 2.91942L5.81527 2.92219C5.66967 2.92237 5.53294 2.97928 5.43014 3.08236C5.32739 3.18544 5.27086 3.32236 5.27109 3.468L5.27653 6.8002L2.49033 9.42487C2.25389 9.64758 2.11838 9.94903 2.10867 10.2737C2.09897 10.5983 2.2163 10.9073 2.439 11.1437C2.66166 11.3801 2.96311 11.5157 3.28781 11.5254C3.30023 11.5258 3.31266 11.526 3.32508 11.526C3.63609 11.526 3.93061 11.4092 4.15791 11.195L5.21958 10.1949L5.2238 13.2085C4.8803 13.1585 4.53277 13.1323 4.18364 13.1323H3.59747V12.9269C3.59747 12.2373 3.03642 11.6762 2.34684 11.6762H1.25063C0.561047 11.6762 0 12.2372 0 12.9268V18.2948C0 18.484 0.153375 18.6374 0.342562 18.6374C0.53175 18.6374 0.685125 18.484 0.685125 18.2948V12.9268C0.685125 12.615 0.938812 12.3613 1.25063 12.3613H2.3468C2.65861 12.3613 2.9123 12.615 2.9123 12.9268V13.4748V20.4965V21.039C2.9123 21.3509 2.65861 21.6045 2.3468 21.6045H1.25063C0.938812 21.6045 0.685125 21.3509 0.685125 21.039V20.4396C0.685125 20.2504 0.53175 20.097 0.342562 20.097C0.153375 20.097 0 20.2504 0 20.4396V21.039C0 21.7286 0.561047 22.2897 1.25063 22.2897H2.3468C3.03638 22.2897 3.59742 21.7287 3.59742 21.039V20.9925L8.61417 22.8923C8.62345 22.8958 8.63287 22.8989 8.64244 22.9015C8.86055 22.9631 9.07856 22.994 9.29381 22.994C9.41025 22.994 9.52589 22.985 9.64036 22.9669L17.0129 21.9041C17.0146 21.9039 17.0163 21.9036 17.0181 21.9033C17.6449 21.8032 18.2362 21.5383 18.7281 21.1371C18.7323 21.1336 18.7365 21.13 18.7406 21.1263L23.5036 16.8425C24.0583 16.3501 24.1619 15.5163 23.7446 14.9031ZM7.64236 3.60478L7.64395 4.56994L5.96058 6.15572L5.95641 3.60708L7.64236 3.60478ZM11.9129 3.8895L17.9381 9.53381L17.9485 17.0147L16.9786 17.6639L15.9516 17.6062L15.9244 17.3334C15.8288 16.3726 15.1195 15.5997 14.1816 15.4152L14.1754 10.9647C14.175 10.6231 13.8969 10.3456 13.5554 10.3456C13.5551 10.3456 13.5549 10.3456 13.5546 10.3456L10.2895 10.3502C10.1239 10.3504 9.9683 10.4151 9.85139 10.5324C9.73444 10.6496 9.67017 10.8054 9.67041 10.971L9.67584 14.8514C9.02911 14.7035 8.41158 14.4593 7.83422 14.1216C7.76217 14.0795 7.68942 14.0388 7.61606 13.9992C7.58747 13.9838 7.55841 13.9693 7.52958 13.9543C7.48495 13.931 7.44042 13.9075 7.39533 13.8852C7.35942 13.8674 7.32309 13.8505 7.28691 13.8333C7.24852 13.815 7.21017 13.7966 7.1715 13.779C7.13213 13.7612 7.09242 13.7442 7.05277 13.727C7.01653 13.7114 6.9803 13.6956 6.94383 13.6806C6.90305 13.6637 6.86203 13.6476 6.82097 13.6315C6.78455 13.6172 6.74808 13.6031 6.71147 13.5894C6.67083 13.5742 6.63 13.5595 6.58908 13.5451C6.55069 13.5316 6.51225 13.5184 6.47363 13.5055C6.43444 13.4924 6.39516 13.4796 6.35569 13.4672C6.31364 13.4539 6.27141 13.4413 6.22913 13.4287C6.1928 13.4181 6.15652 13.4074 6.12 13.3972C6.07233 13.384 6.02442 13.3716 5.97647 13.3593C5.95402 13.3535 5.9317 13.347 5.90911 13.3414L5.90381 9.55026L11.9129 3.8895ZM13.4964 15.3295L10.6312 14.9996L10.3612 14.9685L10.3557 11.0352L13.4904 11.0308L13.4964 15.3295ZM23.0472 16.3317L18.2888 20.6113C17.8923 20.9328 17.4167 21.1455 16.9125 21.2264L9.54319 22.2887C9.54164 22.2889 9.54014 22.2892 9.53859 22.2894L9.53348 22.2902C9.31022 22.3255 9.07772 22.3106 8.84236 22.246L3.59747 20.2598V13.8173H4.18364C4.68262 13.8173 5.17823 13.875 5.66086 13.9868C5.67881 13.991 5.69672 13.9953 5.71463 13.9996C5.77392 14.0139 5.83308 14.0286 5.89195 14.0445C5.89711 14.046 5.90222 14.0475 5.90738 14.0489C5.96639 14.065 6.02517 14.082 6.08377 14.0998C6.09427 14.103 6.10481 14.1061 6.11527 14.1093C6.17761 14.1286 6.23967 14.1487 6.30141 14.1698C6.30778 14.172 6.31411 14.1742 6.32048 14.1765C6.44906 14.2208 6.57638 14.2693 6.70209 14.3217C6.70894 14.3245 6.71578 14.3274 6.72262 14.3303C6.7853 14.3566 6.84759 14.3839 6.90947 14.4122C6.91111 14.4129 6.9128 14.4137 6.91444 14.4145C6.97425 14.442 7.03364 14.4705 7.09266 14.4998C7.09959 14.5032 7.10658 14.5066 7.11352 14.5101C7.17117 14.5389 7.22836 14.5687 7.28522 14.5993C7.29595 14.6051 7.30664 14.611 7.31738 14.6168C7.37475 14.6481 7.4318 14.6799 7.48828 14.713C8.30348 15.1898 9.19092 15.4987 10.126 15.631C10.1289 15.6315 10.1318 15.6318 10.1348 15.6322L13.973 16.074C13.9942 16.0771 14.0153 16.0806 14.0363 16.0845C14.6013 16.1907 15.0473 16.6082 15.1965 17.1519C15.2186 17.2324 15.2341 17.3158 15.2427 17.4012L15.2579 17.5545L8.06447 16.9243C7.87613 16.9078 7.70981 17.0472 7.69331 17.2356C7.67677 17.4241 7.81622 17.5903 8.00466 17.6068L15.6097 18.2731C15.6116 18.2732 15.6134 18.2732 15.6151 18.2733C15.6169 18.2735 15.6187 18.2737 15.6205 18.2739L17.0547 18.3544C17.0611 18.3547 17.0675 18.3549 17.0739 18.3549C17.0807 18.3549 17.0874 18.3538 17.0941 18.3534C17.1018 18.3529 17.1094 18.3526 17.117 18.3517C17.1272 18.3504 17.1372 18.3482 17.1473 18.346C17.1544 18.3444 17.1616 18.3432 17.1687 18.3412C17.1796 18.338 17.1902 18.3337 17.2008 18.3295C17.2065 18.3272 17.2125 18.3255 17.2181 18.3228C17.2341 18.3154 17.2496 18.3069 17.2644 18.297L18.4819 17.4822L18.482 17.4821L22.0774 15.0759C22.4392 14.8327 22.9329 14.9281 23.1781 15.2885C23.4023 15.6179 23.3467 16.0657 23.0472 16.3317Z" fill="#737791" stroke="#737791" stroke-width="2" mask="url(#path-1-inside-1_85_719)"/>
</svg>
