<svg width="20" height="20" viewBox="0 0 20 20" fill="none" xmlns="http://www.w3.org/2000/svg">
<g clip-path="url(#clip0_2_3139)">
<path d="M10 0C4.48598 0 0 4.48598 0 10C0 15.514 4.48598 20 10 20C15.514 20 20 15.514 20 10C20 4.48598 15.514 0 10 0ZM14.9391 9.66039C14.9391 10.0055 14.6593 10.2854 14.3141 10.2854C13.9689 10.2854 13.6891 10.0055 13.6891 9.66039V7.19477C13.6891 7.19477 6.13934 14.7445 6.12785 14.756C5.89324 14.9906 5.4834 14.9955 5.24398 14.756C4.99988 14.5119 4.99988 14.1162 5.24398 13.8721L12.8052 6.31094H10.3396C9.99441 6.31094 9.71461 6.03109 9.71461 5.68594C9.71461 5.34078 9.99441 5.06094 10.3396 5.06094H14.3141C14.6593 5.06094 14.9391 5.34078 14.9391 5.68594V9.66039Z" fill="url(#paint0_linear_2_3139)"/>
</g>
<defs>
<linearGradient id="paint0_linear_2_3139" x1="10" y1="20" x2="10" y2="0" gradientUnits="userSpaceOnUse">
<stop stop-color="#009EFB"/>
<stop offset="1" stop-color="#68C185"/>
</linearGradient>
<clipPath id="clip0_2_3139">
<rect width="20" height="20" fill="white"/>
</clipPath>
</defs>
</svg>
