<svg width="28" height="28" viewBox="0 0 28 28" fill="none" xmlns="http://www.w3.org/2000/svg">
<path fill-rule="evenodd" clip-rule="evenodd" d="M19.7751 20.1999L24.3375 14.8765C24.5554 14.628 24.6668 14.3142 24.667 13.9988C24.6671 13.783 24.6151 13.5664 24.5094 13.3694C24.4625 13.2816 24.4051 13.1982 24.3375 13.1211L19.7751 7.79772C19.2959 7.2386 18.4542 7.1738 17.8951 7.653C17.3359 8.1322 17.2711 8.97393 17.7503 9.53305L20.4349 12.6654L10.1087 12.6654C9.37231 12.6654 8.77536 13.2623 8.77536 13.9987C8.77536 14.7351 9.37231 15.332 10.1087 15.332L20.435 15.3321L17.7503 18.4646C17.2711 19.0237 17.3359 19.8654 17.8951 20.3446C18.4542 20.8238 19.2959 20.759 19.7751 20.1999ZM11.3337 5.9987C12.07 5.9987 12.667 6.59565 12.667 7.33203L12.667 9.33203C12.667 10.0684 13.2639 10.6654 14.0003 10.6654C14.7367 10.6654 15.3337 10.0684 15.3337 9.33203L15.3337 7.33203C15.3337 5.12289 13.5428 3.33203 11.3337 3.33203L7.33366 3.33203C5.12452 3.33203 3.33366 5.12289 3.33366 7.33203L3.33366 20.6654C3.33366 22.8745 5.12452 24.6654 7.33366 24.6654L11.3337 24.6654C13.5428 24.6654 15.3337 22.8745 15.3337 20.6654L15.3337 18.6654C15.3337 17.929 14.7367 17.332 14.0003 17.332C13.2639 17.332 12.667 17.929 12.667 18.6654L12.667 20.6654C12.667 21.4017 12.07 21.9987 11.3337 21.9987L7.33366 21.9987C6.59728 21.9987 6.00032 21.4017 6.00032 20.6654L6.00032 7.33203C6.00032 6.59565 6.59728 5.9987 7.33366 5.9987L11.3337 5.9987Z" fill="#737791"/>
</svg>
