<svg width="24" height="24" viewBox="0 0 24 24" fill="none" xmlns="http://www.w3.org/2000/svg">
<g clip-path="url(#clip0_85_759)">
<path d="M12.0312 19.0312C12.0312 19.0485 12.0172 19.0625 12 19.0625C11.9828 19.0625 11.9688 19.0485 11.9688 19.0312C11.9688 19.014 11.9828 19 12 19C12.0172 19 12.0312 19.014 12.0312 19.0312Z" fill="#737791" stroke="#737791"/>
<mask id="path-2-inside-1_85_759" fill="white">
<path d="M22.4531 14.8125C22.4531 13.2616 21.1915 12 19.6406 12C18.0897 12 16.8281 13.2616 16.8281 14.8125C16.8281 16.3634 18.0897 17.625 19.6406 17.625C21.1915 17.625 22.4531 16.3634 22.4531 14.8125ZM19.6406 16.6875C18.6068 16.6875 17.7656 15.8463 17.7656 14.8125C17.7656 13.7787 18.6068 12.9375 19.6406 12.9375C20.6744 12.9375 21.5156 13.7787 21.5156 14.8125C21.5156 15.8463 20.6744 16.6875 19.6406 16.6875Z"/>
</mask>
<path d="M22.4531 14.8125C22.4531 13.2616 21.1915 12 19.6406 12C18.0897 12 16.8281 13.2616 16.8281 14.8125C16.8281 16.3634 18.0897 17.625 19.6406 17.625C21.1915 17.625 22.4531 16.3634 22.4531 14.8125ZM19.6406 16.6875C18.6068 16.6875 17.7656 15.8463 17.7656 14.8125C17.7656 13.7787 18.6068 12.9375 19.6406 12.9375C20.6744 12.9375 21.5156 13.7787 21.5156 14.8125C21.5156 15.8463 20.6744 16.6875 19.6406 16.6875Z" fill="#737791"/>
<path d="M23.4531 14.8125C23.4531 12.7093 21.7438 11 19.6406 11V13C20.6392 13 21.4531 13.8139 21.4531 14.8125H23.4531ZM19.6406 11C17.5374 11 15.8281 12.7093 15.8281 14.8125H17.8281C17.8281 13.8139 18.642 13 19.6406 13V11ZM15.8281 14.8125C15.8281 16.9157 17.5374 18.625 19.6406 18.625V16.625C18.642 16.625 17.8281 15.8111 17.8281 14.8125H15.8281ZM19.6406 18.625C21.7438 18.625 23.4531 16.9157 23.4531 14.8125H21.4531C21.4531 15.8111 20.6392 16.625 19.6406 16.625V18.625ZM19.6406 15.6875C19.1591 15.6875 18.7656 15.294 18.7656 14.8125H16.7656C16.7656 16.3986 18.0545 17.6875 19.6406 17.6875V15.6875ZM18.7656 14.8125C18.7656 14.331 19.1591 13.9375 19.6406 13.9375V11.9375C18.0545 11.9375 16.7656 13.2264 16.7656 14.8125H18.7656ZM19.6406 13.9375C20.1222 13.9375 20.5156 14.331 20.5156 14.8125H22.5156C22.5156 13.2264 21.2267 11.9375 19.6406 11.9375V13.9375ZM20.5156 14.8125C20.5156 15.294 20.1222 15.6875 19.6406 15.6875V17.6875C21.2267 17.6875 22.5156 16.3986 22.5156 14.8125H20.5156Z" fill="#737791" mask="url(#path-2-inside-1_85_759)"/>
<mask id="path-4-inside-2_85_759" fill="white">
<path d="M19.6406 17.625C18.4594 17.625 17.2815 18.1154 16.4791 18.9104C15.423 17.5225 13.7944 16.6875 12 16.6875C10.2816 16.6875 8.61639 17.4716 7.52106 18.9104C6.71851 18.1155 5.54077 17.625 4.35938 17.625C1.9964 17.625 0 19.5569 0 21.8438V22.7812C0 23.0402 0.209839 23.25 0.46875 23.25H23.5312C23.7902 23.25 24 23.0402 24 22.7812V21.8438C24 19.5569 22.0036 17.625 19.6406 17.625ZM0.9375 21.8438C0.9375 20.0651 2.50452 18.5625 4.35938 18.5625C5.37433 18.5625 6.38086 19.0122 7.00397 19.7271C6.59198 20.5228 6.375 21.4098 6.375 22.3125H0.9375V21.8438ZM12 17.625C14.6083 17.625 16.6875 19.7413 16.6875 22.3125H7.3125C7.3125 19.7071 9.43414 17.625 12 17.625ZM23.0625 22.3125H17.625C17.625 21.4098 17.408 20.5228 16.996 19.7271C17.6191 19.0122 18.6257 18.5625 19.6406 18.5625C21.4955 18.5625 23.0625 20.0651 23.0625 21.8438V22.3125Z"/>
</mask>
<path d="M19.6406 17.625C18.4594 17.625 17.2815 18.1154 16.4791 18.9104C15.423 17.5225 13.7944 16.6875 12 16.6875C10.2816 16.6875 8.61639 17.4716 7.52106 18.9104C6.71851 18.1155 5.54077 17.625 4.35938 17.625C1.9964 17.625 0 19.5569 0 21.8438V22.7812C0 23.0402 0.209839 23.25 0.46875 23.25H23.5312C23.7902 23.25 24 23.0402 24 22.7812V21.8438C24 19.5569 22.0036 17.625 19.6406 17.625ZM0.9375 21.8438C0.9375 20.0651 2.50452 18.5625 4.35938 18.5625C5.37433 18.5625 6.38086 19.0122 7.00397 19.7271C6.59198 20.5228 6.375 21.4098 6.375 22.3125H0.9375V21.8438ZM12 17.625C14.6083 17.625 16.6875 19.7413 16.6875 22.3125H7.3125C7.3125 19.7071 9.43414 17.625 12 17.625ZM23.0625 22.3125H17.625C17.625 21.4098 17.408 20.5228 16.996 19.7271C17.6191 19.0122 18.6257 18.5625 19.6406 18.5625C21.4955 18.5625 23.0625 20.0651 23.0625 21.8438V22.3125Z" fill="#737791"/>
<path d="M16.4791 18.9104L15.6833 19.516L16.3735 20.4229L17.183 19.6207L16.4791 18.9104ZM7.52106 18.9104L6.81736 19.6209L7.62673 20.4225L8.31674 19.5161L7.52106 18.9104ZM7.00397 19.7271L7.89201 20.1868L8.20475 19.5827L7.75779 19.07L7.00397 19.7271ZM6.375 22.3125V23.3125H7.375V22.3125H6.375ZM0.9375 22.3125H-0.0625V23.3125H0.9375V22.3125ZM16.6875 22.3125V23.3125H17.6875V22.3125H16.6875ZM7.3125 22.3125H6.3125V23.3125H7.3125V22.3125ZM23.0625 22.3125V23.3125H24.0625V22.3125H23.0625ZM17.625 22.3125H16.625V23.3125H17.625V22.3125ZM16.996 19.7271L16.2422 19.07L15.7952 19.5827L16.108 20.1868L16.996 19.7271ZM19.6406 16.625C18.1986 16.625 16.7669 17.2175 15.7753 18.2001L17.183 19.6207C17.7961 19.0133 18.7202 18.625 19.6406 18.625V16.625ZM17.2749 18.3048C16.0333 16.6731 14.1127 15.6875 12 15.6875V17.6875C13.4762 17.6875 14.8127 18.3718 15.6833 19.516L17.2749 18.3048ZM12 15.6875C9.97669 15.6875 8.01426 16.6116 6.72538 18.3047L8.31674 19.5161C9.21853 18.3315 10.5864 17.6875 12 17.6875V15.6875ZM8.22475 18.1999C7.23308 17.2177 5.80168 16.625 4.35938 16.625V18.625C5.27987 18.625 6.20393 19.0134 6.81736 19.6209L8.22475 18.1999ZM4.35938 16.625C1.47528 16.625 -1 18.974 -1 21.8438H1C1 20.1399 2.51751 18.625 4.35938 18.625V16.625ZM-1 21.8438V22.7812H1V21.8438H-1ZM-1 22.7812C-1 23.5924 -0.342446 24.25 0.46875 24.25V22.25C0.762124 22.25 1 22.4879 1 22.7812H-1ZM0.46875 24.25H23.5312V22.25H0.46875V24.25ZM23.5312 24.25C24.3424 24.25 25 23.5924 25 22.7812H23C23 22.4879 23.2379 22.25 23.5312 22.25V24.25ZM25 22.7812V21.8438H23V22.7812H25ZM25 21.8438C25 18.974 22.5247 16.625 19.6406 16.625V18.625C21.4825 18.625 23 20.1399 23 21.8438H25ZM1.9375 21.8438C1.9375 20.6565 3.01683 19.5625 4.35938 19.5625V17.5625C1.99221 17.5625 -0.0625 19.4736 -0.0625 21.8438H1.9375ZM4.35938 19.5625C5.10108 19.5625 5.82707 19.8988 6.25015 20.3841L7.75779 19.07C6.93465 18.1256 5.64758 17.5625 4.35938 17.5625V19.5625ZM6.11592 19.2673C5.63044 20.205 5.375 21.2496 5.375 22.3125H7.375C7.375 21.5699 7.55352 20.8406 7.89201 20.1868L6.11592 19.2673ZM6.375 21.3125H0.9375V23.3125H6.375V21.3125ZM1.9375 22.3125V21.8438H-0.0625V22.3125H1.9375ZM12 18.625C14.0509 18.625 15.6875 20.2884 15.6875 22.3125H17.6875C17.6875 19.1942 15.1658 16.625 12 16.625V18.625ZM16.6875 21.3125H7.3125V23.3125H16.6875V21.3125ZM8.3125 22.3125C8.3125 20.2649 9.98093 18.625 12 18.625V16.625C8.88736 16.625 6.3125 19.1493 6.3125 22.3125H8.3125ZM23.0625 21.3125H17.625V23.3125H23.0625V21.3125ZM18.625 22.3125C18.625 21.2496 18.3696 20.205 17.8841 19.2673L16.108 20.1868C16.4465 20.8406 16.625 21.5699 16.625 22.3125H18.625ZM17.7499 20.3841C18.1729 19.8988 18.8989 19.5625 19.6406 19.5625V17.5625C18.3524 17.5625 17.0654 18.1256 16.2422 19.07L17.7499 20.3841ZM19.6406 19.5625C20.9832 19.5625 22.0625 20.6565 22.0625 21.8438H24.0625C24.0625 19.4736 22.0078 17.5625 19.6406 17.5625V19.5625ZM22.0625 21.8438V22.3125H24.0625V21.8438H22.0625Z" fill="#737791" mask="url(#path-4-inside-2_85_759)"/>
<mask id="path-6-inside-3_85_759" fill="white">
<path d="M7.17188 14.8125C7.17188 13.2616 5.91028 12 4.35938 12C2.80847 12 1.54688 13.2616 1.54688 14.8125C1.54688 16.3634 2.80847 17.625 4.35938 17.625C5.91028 17.625 7.17188 16.3634 7.17188 14.8125ZM4.35938 16.6875C3.32556 16.6875 2.48438 15.8463 2.48438 14.8125C2.48438 13.7787 3.32556 12.9375 4.35938 12.9375C5.39319 12.9375 6.23438 13.7787 6.23438 14.8125C6.23438 15.8463 5.39319 16.6875 4.35938 16.6875Z"/>
</mask>
<path d="M7.17188 14.8125C7.17188 13.2616 5.91028 12 4.35938 12C2.80847 12 1.54688 13.2616 1.54688 14.8125C1.54688 16.3634 2.80847 17.625 4.35938 17.625C5.91028 17.625 7.17188 16.3634 7.17188 14.8125ZM4.35938 16.6875C3.32556 16.6875 2.48438 15.8463 2.48438 14.8125C2.48438 13.7787 3.32556 12.9375 4.35938 12.9375C5.39319 12.9375 6.23438 13.7787 6.23438 14.8125C6.23438 15.8463 5.39319 16.6875 4.35938 16.6875Z" fill="#737791"/>
<path d="M8.17188 14.8125C8.17188 12.7093 6.46256 11 4.35938 11V13C5.35799 13 6.17188 13.8139 6.17188 14.8125H8.17188ZM4.35938 11C2.25619 11 0.546875 12.7093 0.546875 14.8125H2.54688C2.54688 13.8139 3.36076 13 4.35938 13V11ZM0.546875 14.8125C0.546875 16.9157 2.25619 18.625 4.35938 18.625V16.625C3.36076 16.625 2.54688 15.8111 2.54688 14.8125H0.546875ZM4.35938 18.625C6.46256 18.625 8.17188 16.9157 8.17188 14.8125H6.17188C6.17188 15.8111 5.35799 16.625 4.35938 16.625V18.625ZM4.35938 15.6875C3.87785 15.6875 3.48438 15.294 3.48438 14.8125H1.48438C1.48438 16.3986 2.77328 17.6875 4.35938 17.6875V15.6875ZM3.48438 14.8125C3.48438 14.331 3.87785 13.9375 4.35938 13.9375V11.9375C2.77328 11.9375 1.48438 13.2264 1.48438 14.8125H3.48438ZM4.35938 13.9375C4.8409 13.9375 5.23438 14.331 5.23438 14.8125H7.23438C7.23438 13.2264 5.94547 11.9375 4.35938 11.9375V13.9375ZM5.23438 14.8125C5.23438 15.294 4.8409 15.6875 4.35938 15.6875V17.6875C5.94547 17.6875 7.23438 16.3986 7.23438 14.8125H5.23438Z" fill="#737791" mask="url(#path-6-inside-3_85_759)"/>
<mask id="path-8-inside-4_85_759" fill="white">
<path d="M15.75 12.9375C15.75 10.8697 14.0678 9.1875 12 9.1875C9.93219 9.1875 8.25 10.8697 8.25 12.9375C8.25 15.0053 9.93219 16.6875 12 16.6875C14.0678 16.6875 15.75 15.0053 15.75 12.9375ZM12 15.75C10.4491 15.75 9.1875 14.4884 9.1875 12.9375C9.1875 11.3866 10.4491 10.125 12 10.125C13.5509 10.125 14.8125 11.3866 14.8125 12.9375C14.8125 14.4884 13.5509 15.75 12 15.75Z"/>
</mask>
<path d="M15.75 12.9375C15.75 10.8697 14.0678 9.1875 12 9.1875C9.93219 9.1875 8.25 10.8697 8.25 12.9375C8.25 15.0053 9.93219 16.6875 12 16.6875C14.0678 16.6875 15.75 15.0053 15.75 12.9375ZM12 15.75C10.4491 15.75 9.1875 14.4884 9.1875 12.9375C9.1875 11.3866 10.4491 10.125 12 10.125C13.5509 10.125 14.8125 11.3866 14.8125 12.9375C14.8125 14.4884 13.5509 15.75 12 15.75Z" fill="#737791"/>
<path d="M16.75 12.9375C16.75 10.3174 14.6201 8.1875 12 8.1875V10.1875C13.5155 10.1875 14.75 11.422 14.75 12.9375H16.75ZM12 8.1875C9.37991 8.1875 7.25 10.3174 7.25 12.9375H9.25C9.25 11.422 10.4845 10.1875 12 10.1875V8.1875ZM7.25 12.9375C7.25 15.5576 9.37991 17.6875 12 17.6875V15.6875C10.4845 15.6875 9.25 14.453 9.25 12.9375H7.25ZM12 17.6875C14.6201 17.6875 16.75 15.5576 16.75 12.9375H14.75C14.75 14.453 13.5155 15.6875 12 15.6875V17.6875ZM12 14.75C11.0014 14.75 10.1875 13.9361 10.1875 12.9375H8.1875C8.1875 15.0407 9.89681 16.75 12 16.75V14.75ZM10.1875 12.9375C10.1875 11.9389 11.0014 11.125 12 11.125V9.125C9.89681 9.125 8.1875 10.8343 8.1875 12.9375H10.1875ZM12 11.125C12.9986 11.125 13.8125 11.9389 13.8125 12.9375H15.8125C15.8125 10.8343 14.1032 9.125 12 9.125V11.125ZM13.8125 12.9375C13.8125 13.9361 12.9986 14.75 12 14.75V16.75C14.1032 16.75 15.8125 15.0407 15.8125 12.9375H13.8125Z" fill="#737791" mask="url(#path-8-inside-4_85_759)"/>
<mask id="path-10-inside-5_85_759" fill="white">
<path d="M15.7097 3.47626C15.6546 3.30652 15.5079 3.18292 15.3312 3.15729L13.3094 2.86377L12.4041 1.01294C12.3256 0.85199 12.1622 0.75 11.9832 0.75C11.8041 0.75 11.6407 0.85199 11.562 1.01276L10.6569 2.86377L8.63507 3.1571C8.45837 3.18274 8.3117 3.30652 8.25659 3.47626C8.20147 3.646 8.24743 3.83221 8.37524 3.95673L9.83935 5.38367L9.49383 7.39874C9.46362 7.57452 9.53595 7.75232 9.68042 7.85706C9.82397 7.96143 10.0151 7.97626 10.1741 7.89276L11.9832 6.94153L13.793 7.89276C13.9508 7.97589 14.1421 7.96198 14.2866 7.85706C14.4309 7.75214 14.5032 7.57452 14.473 7.39856L14.1271 5.38367L15.5911 3.95673C15.7189 3.83221 15.7648 3.646 15.7097 3.47626ZM13.296 4.88434C13.1856 4.992 13.1351 5.14728 13.1613 5.29926L13.3881 6.62109L12.2012 5.99707C12.0646 5.92529 11.9015 5.92529 11.7649 5.99707L10.5784 6.62109L10.8051 5.29926C10.8311 5.14709 10.7805 4.992 10.6701 4.88434L9.7099 3.94849L11.0365 3.75586C11.1899 3.7337 11.3223 3.63702 11.3903 3.49786L11.9832 2.28571L12.5759 3.49786C12.644 3.63721 12.7764 3.7337 12.9296 3.75586L14.2564 3.94849L13.296 4.88434Z"/>
</mask>
<path d="M15.7097 3.47626C15.6546 3.30652 15.5079 3.18292 15.3312 3.15729L13.3094 2.86377L12.4041 1.01294C12.3256 0.85199 12.1622 0.75 11.9832 0.75C11.8041 0.75 11.6407 0.85199 11.562 1.01276L10.6569 2.86377L8.63507 3.1571C8.45837 3.18274 8.3117 3.30652 8.25659 3.47626C8.20147 3.646 8.24743 3.83221 8.37524 3.95673L9.83935 5.38367L9.49383 7.39874C9.46362 7.57452 9.53595 7.75232 9.68042 7.85706C9.82397 7.96143 10.0151 7.97626 10.1741 7.89276L11.9832 6.94153L13.793 7.89276C13.9508 7.97589 14.1421 7.96198 14.2866 7.85706C14.4309 7.75214 14.5032 7.57452 14.473 7.39856L14.1271 5.38367L15.5911 3.95673C15.7189 3.83221 15.7648 3.646 15.7097 3.47626ZM13.296 4.88434C13.1856 4.992 13.1351 5.14728 13.1613 5.29926L13.3881 6.62109L12.2012 5.99707C12.0646 5.92529 11.9015 5.92529 11.7649 5.99707L10.5784 6.62109L10.8051 5.29926C10.8311 5.14709 10.7805 4.992 10.6701 4.88434L9.7099 3.94849L11.0365 3.75586C11.1899 3.7337 11.3223 3.63702 11.3903 3.49786L11.9832 2.28571L12.5759 3.49786C12.644 3.63721 12.7764 3.7337 12.9296 3.75586L14.2564 3.94849L13.296 4.88434Z" fill="#737791"/>
<path d="M15.3312 3.15729L15.1876 4.14691L15.1877 4.14693L15.3312 3.15729ZM13.3094 2.86377L12.4111 3.30315L12.6431 3.77753L13.1657 3.8534L13.3094 2.86377ZM12.4041 1.01294L11.5054 1.45154L11.5058 1.45232L12.4041 1.01294ZM11.562 1.01276L10.6639 0.572922L10.6637 0.573487L11.562 1.01276ZM10.6569 2.86377L10.8005 3.85341L11.3232 3.77757L11.5553 3.30304L10.6569 2.86377ZM8.63507 3.1571L8.77864 4.14674L8.77865 4.14674L8.63507 3.1571ZM8.37524 3.95673L9.0732 3.24059L9.07305 3.24044L8.37524 3.95673ZM9.83935 5.38367L10.825 5.55267L10.9138 5.03448L10.5373 4.66753L9.83935 5.38367ZM9.49383 7.39874L10.4794 7.56813L10.4794 7.56774L9.49383 7.39874ZM9.68042 7.85706L10.2685 7.04823L10.2674 7.04743L9.68042 7.85706ZM10.1741 7.89276L10.6391 8.77803L10.6395 8.77786L10.1741 7.89276ZM11.9832 6.94153L12.4484 6.05635L11.9831 5.81177L11.5178 6.05643L11.9832 6.94153ZM13.793 7.89276L14.259 7.00798L14.2582 7.00758L13.793 7.89276ZM14.2866 7.85706L14.8742 8.66619L14.8747 8.66584L14.2866 7.85706ZM14.473 7.39856L13.4874 7.56775L13.4874 7.56778L14.473 7.39856ZM14.1271 5.38367L13.4291 4.66757L13.0526 5.0346L13.1415 5.55286L14.1271 5.38367ZM15.5911 3.95673L14.8933 3.24044L14.8931 3.24063L15.5911 3.95673ZM13.296 4.88434L12.5981 4.16814L12.5979 4.16838L13.296 4.88434ZM13.1613 5.29926L14.1468 5.1301L14.1467 5.12947L13.1613 5.29926ZM13.3881 6.62109L12.9228 7.50621L14.7165 8.44931L14.3737 6.45194L13.3881 6.62109ZM12.2012 5.99707L12.6666 5.11195L12.6664 5.11184L12.2012 5.99707ZM11.7649 5.99707L11.2997 5.11184L11.2994 5.11201L11.7649 5.99707ZM10.5784 6.62109L9.59275 6.45207L9.25022 8.44947L11.0438 7.50615L10.5784 6.62109ZM10.8051 5.29926L11.7907 5.46828L11.7908 5.46769L10.8051 5.29926ZM10.6701 4.88434L11.3682 4.16838L11.3681 4.16821L10.6701 4.88434ZM9.7099 3.94849L9.5662 2.95886L7.56059 3.25009L9.01193 4.66462L9.7099 3.94849ZM11.0365 3.75586L10.8936 2.76612L10.8928 2.76624L11.0365 3.75586ZM11.3903 3.49786L10.492 3.05848L10.4916 3.05918L11.3903 3.49786ZM11.9832 2.28571L12.8815 1.84643L11.9833 0.00949019L11.0848 1.84633L11.9832 2.28571ZM12.5759 3.49786L13.4743 3.0587L13.4742 3.05859L12.5759 3.49786ZM12.9296 3.75586L13.0733 2.76623L13.0727 2.76615L12.9296 3.75586ZM14.2564 3.94849L14.9543 4.66468L16.406 3.25009L14.4001 2.95886L14.2564 3.94849ZM16.6608 3.16743C16.488 2.63523 16.0281 2.24791 15.4748 2.16765L15.1877 4.14693C14.9878 4.11793 14.8212 3.9778 14.7586 3.78509L16.6608 3.16743ZM15.4749 2.16766L13.4531 1.87414L13.1657 3.8534L15.1876 4.14691L15.4749 2.16766ZM14.2077 2.42439L13.3024 0.573564L11.5058 1.45232L12.4111 3.30315L14.2077 2.42439ZM13.3028 0.574334C13.0565 0.0697581 12.5443 -0.25 11.9832 -0.25V1.75C11.7801 1.75 11.5946 1.63422 11.5054 1.45154L13.3028 0.574334ZM11.9832 -0.25C11.422 -0.25 10.9104 0.0696505 10.6639 0.572923L12.4601 1.45259C12.3711 1.63433 12.1862 1.75 11.9832 1.75V-0.25ZM10.6637 0.573487L9.75856 2.4245L11.5553 3.30304L12.4604 1.45203L10.6637 0.573487ZM10.5133 1.87413L8.49149 2.16747L8.77865 4.14674L10.8005 3.85341L10.5133 1.87413ZM8.49149 2.16747C7.9376 2.24782 7.47808 2.63584 7.30547 3.16743L9.20771 3.78509C9.14533 3.9772 8.97914 4.11766 8.77864 4.14674L8.49149 2.16747ZM7.30547 3.16743C7.13288 3.69896 7.27675 4.28266 7.67743 4.67301L9.07305 3.24044C9.21812 3.38177 9.27007 3.59303 9.20771 3.78509L7.30547 3.16743ZM7.67728 4.67286L9.14139 6.09981L10.5373 4.66753L9.0732 3.24059L7.67728 4.67286ZM8.85374 5.21467L8.50822 7.22974L10.4794 7.56774L10.825 5.55267L8.85374 5.21467ZM8.50828 7.22935C8.41354 7.78061 8.64029 8.33814 9.09347 8.66668L10.2674 7.04743C10.4316 7.1665 10.5137 7.36844 10.4794 7.56813L8.50828 7.22935ZM9.09237 8.66588C9.54228 8.99298 10.1416 9.03944 10.6391 8.77803L9.709 7.00749C9.88871 6.91308 10.1057 6.92987 10.2685 7.04823L9.09237 8.66588ZM10.6395 8.77786L12.4485 7.82663L11.5178 6.05643L9.70867 7.00766L10.6395 8.77786ZM11.5179 7.82671L13.3277 8.77794L14.2582 7.00758L12.4484 6.05635L11.5179 7.82671ZM13.327 8.77755C13.8226 9.03861 14.4224 8.99431 14.8742 8.66619L13.699 7.04792C13.8619 6.92964 14.079 6.91317 14.259 7.00798L13.327 8.77755ZM14.8747 8.66584C15.3264 8.33736 15.5533 7.78081 15.4586 7.22934L13.4874 7.56778C13.4532 7.36824 13.5354 7.16691 13.6985 7.04828L14.8747 8.66584ZM15.4586 7.22937L15.1127 5.21448L13.1415 5.55286L13.4874 7.56775L15.4586 7.22937ZM14.8251 6.09976L16.2891 4.67282L14.8931 3.24063L13.4291 4.66757L14.8251 6.09976ZM16.2889 4.67301C16.6896 4.28266 16.8334 3.69896 16.6608 3.16743L14.7586 3.78509C14.6962 3.59303 14.7482 3.38177 14.8933 3.24044L16.2889 4.67301ZM12.5979 4.16838C12.2522 4.50541 12.0935 4.99173 12.1758 5.46904L14.1467 5.12947C14.1766 5.30282 14.119 5.4786 13.9942 5.60029L12.5979 4.16838ZM12.1757 5.46841L12.4025 6.79025L14.3737 6.45194L14.1468 5.1301L12.1757 5.46841ZM13.8535 5.73597L12.6666 5.11195L11.7359 6.88219L12.9228 7.50621L13.8535 5.73597ZM12.6664 5.11184C12.2386 4.88704 11.7276 4.88704 11.2997 5.11184L12.23 6.8823C12.0754 6.96355 11.8907 6.96355 11.7361 6.8823L12.6664 5.11184ZM11.2994 5.11201L10.1129 5.73603L11.0438 7.50615L12.2304 6.88213L11.2994 5.11201ZM11.564 6.79012L11.7907 5.46828L9.81944 5.13023L9.59275 6.45207L11.564 6.79012ZM11.7908 5.46769C11.8722 4.99104 11.7139 4.50539 11.3682 4.16838L9.97196 5.60029C9.84718 5.47862 9.78989 5.30314 9.81934 5.13082L11.7908 5.46769ZM11.3681 4.16821L10.4079 3.23236L9.01193 4.66462L9.97213 5.60047L11.3681 4.16821ZM9.85359 4.93811L11.1802 4.74548L10.8928 2.76624L9.5662 2.95886L9.85359 4.93811ZM11.1794 4.7456C11.6608 4.67608 12.0759 4.37278 12.2889 3.93654L10.4916 3.05918C10.5687 2.90127 10.7191 2.79132 10.8936 2.76612L11.1794 4.7456ZM12.2886 3.93724L12.8815 2.72509L11.0848 1.84633L10.492 3.05848L12.2886 3.93724ZM11.0848 2.72498L11.6775 3.93713L13.4742 3.05859L12.8815 1.84643L11.0848 2.72498ZM11.6775 3.93703C11.8907 4.37323 12.3057 4.67605 12.7865 4.74557L13.0727 2.76615C13.2471 2.79136 13.3973 2.90119 13.4743 3.0587L11.6775 3.93703ZM12.7859 4.74548L14.1127 4.93811L14.4001 2.95886L13.0733 2.76623L12.7859 4.74548ZM13.5585 3.23229L12.5981 4.16814L13.9939 5.60053L14.9543 4.66468L13.5585 3.23229Z" fill="#737791" mask="url(#path-10-inside-5_85_759)"/>
<mask id="path-12-inside-6_85_759" fill="white">
<path d="M22.716 6.9895C22.6609 6.81976 22.5142 6.69617 22.3375 6.67053L20.9677 6.4715L20.3552 5.23004C20.2763 5.07001 20.1135 4.96875 19.935 4.96875C19.935 4.96875 19.935 4.96875 19.9348 4.96875C19.7565 4.96875 19.5935 5.07001 19.5146 5.23004L18.9017 6.4715L17.5317 6.67053C17.3552 6.69617 17.2085 6.81976 17.1534 6.9895C17.0981 7.15924 17.1441 7.34546 17.2719 7.46997L18.2631 8.43658L18.029 9.80072C17.999 9.9765 18.0712 10.1541 18.2156 10.259C18.3599 10.364 18.5513 10.3779 18.7091 10.2949L19.9348 9.65094L21.1601 10.2949C21.318 10.3779 21.5095 10.364 21.6538 10.259C21.7981 10.1543 21.8702 9.9765 21.8402 9.80072L21.6062 8.43658L22.5975 7.46997C22.7253 7.34546 22.7711 7.15924 22.716 6.9895ZM20.7754 7.93744C20.6648 8.0451 20.6145 8.2002 20.6407 8.35217L20.7557 9.02307L20.1531 8.70648C20.0165 8.6347 19.8533 8.6347 19.7169 8.70648L19.1138 9.02325L19.2289 8.35217C19.2549 8.2002 19.2046 8.0451 19.0942 7.93744L18.6064 7.46173L19.2804 7.36395C19.4331 7.3418 19.5651 7.24585 19.6334 7.1076L19.9348 6.49695L20.236 7.10742C20.3043 7.24585 20.4363 7.3418 20.589 7.36395L21.2631 7.46173L20.7754 7.93744Z"/>
</mask>
<path d="M22.716 6.9895C22.6609 6.81976 22.5142 6.69617 22.3375 6.67053L20.9677 6.4715L20.3552 5.23004C20.2763 5.07001 20.1135 4.96875 19.935 4.96875C19.935 4.96875 19.935 4.96875 19.9348 4.96875C19.7565 4.96875 19.5935 5.07001 19.5146 5.23004L18.9017 6.4715L17.5317 6.67053C17.3552 6.69617 17.2085 6.81976 17.1534 6.9895C17.0981 7.15924 17.1441 7.34546 17.2719 7.46997L18.2631 8.43658L18.029 9.80072C17.999 9.9765 18.0712 10.1541 18.2156 10.259C18.3599 10.364 18.5513 10.3779 18.7091 10.2949L19.9348 9.65094L21.1601 10.2949C21.318 10.3779 21.5095 10.364 21.6538 10.259C21.7981 10.1543 21.8702 9.9765 21.8402 9.80072L21.6062 8.43658L22.5975 7.46997C22.7253 7.34546 22.7711 7.15924 22.716 6.9895ZM20.7754 7.93744C20.6648 8.0451 20.6145 8.2002 20.6407 8.35217L20.7557 9.02307L20.1531 8.70648C20.0165 8.6347 19.8533 8.6347 19.7169 8.70648L19.1138 9.02325L19.2289 8.35217C19.2549 8.2002 19.2046 8.0451 19.0942 7.93744L18.6064 7.46173L19.2804 7.36395C19.4331 7.3418 19.5651 7.24585 19.6334 7.1076L19.9348 6.49695L20.236 7.10742C20.3043 7.24585 20.4363 7.3418 20.589 7.36395L21.2631 7.46173L20.7754 7.93744Z" fill="#737791"/>
<path d="M22.3375 6.67053L22.1937 7.66014L22.1939 7.66017L22.3375 6.67053ZM20.9677 6.4715L20.0709 6.91394L20.3036 7.3855L20.8239 7.4611L20.9677 6.4715ZM20.3552 5.23004L19.4583 5.67232L19.4584 5.67249L20.3552 5.23004ZM19.5146 5.23004L20.4113 5.6727L20.4115 5.67232L19.5146 5.23004ZM18.9017 6.4715L19.0455 7.46111L19.5657 7.38553L19.7984 6.91415L18.9017 6.4715ZM17.5317 6.67053L17.6754 7.66015L17.6755 7.66014L17.5317 6.67053ZM17.1534 6.9895L18.1042 7.29926L18.1045 7.29833L17.1534 6.9895ZM17.2719 7.46997L17.9701 6.75406L17.9697 6.75369L17.2719 7.46997ZM18.2631 8.43658L19.2487 8.60566L19.3375 8.08763L18.9612 7.72067L18.2631 8.43658ZM18.029 9.80072L17.0434 9.63165L17.0433 9.63233L18.029 9.80072ZM18.2156 10.259L18.8037 9.45025L18.8032 9.4499L18.2156 10.259ZM18.7091 10.2949L18.244 9.40967L18.2439 9.40971L18.7091 10.2949ZM19.9348 9.65094L20.4 8.76574L19.9349 8.52128L19.4697 8.76569L19.9348 9.65094ZM21.1601 10.2949L20.6949 11.1801L20.6949 11.1801L21.1601 10.2949ZM21.6538 10.259L21.0664 9.44976L21.0657 9.45025L21.6538 10.259ZM21.8402 9.80072L22.8259 9.63233L22.8258 9.63165L21.8402 9.80072ZM21.6062 8.43658L20.9081 7.72061L20.5317 8.08758L20.6206 8.60566L21.6062 8.43658ZM22.5975 7.46997L21.8997 6.75369L21.8994 6.75399L22.5975 7.46997ZM20.7754 7.93744L21.473 8.65397L21.4738 8.65323L20.7754 7.93744ZM20.6407 8.35217L21.6263 8.18324L21.6262 8.18239L20.6407 8.35217ZM20.7557 9.02307L20.2906 9.90833L22.0834 10.8502L21.7413 8.85414L20.7557 9.02307ZM20.1531 8.70648L19.6879 9.59171L19.688 9.59174L20.1531 8.70648ZM19.7169 8.70648L20.1819 9.59181L20.1826 9.59145L19.7169 8.70648ZM19.1138 9.02325L18.1282 8.8541L17.7856 10.8503L19.5787 9.90858L19.1138 9.02325ZM19.2289 8.35217L20.2145 8.52132L20.2146 8.52081L19.2289 8.35217ZM19.0942 7.93744L18.396 8.65336L18.396 8.65339L19.0942 7.93744ZM18.6064 7.46173L18.4628 6.47209L16.4576 6.76299L17.9082 8.17765L18.6064 7.46173ZM19.2804 7.36395L19.424 8.35359L19.424 8.35359L19.2804 7.36395ZM19.6334 7.1076L20.53 7.55054L20.5301 7.55019L19.6334 7.1076ZM19.9348 6.49695L20.8316 6.05447L19.9349 4.2372L19.0381 6.05437L19.9348 6.49695ZM20.236 7.10742L21.1328 6.66496L21.1328 6.66495L20.236 7.10742ZM20.589 7.36395L20.4455 8.35359L20.4455 8.35359L20.589 7.36395ZM21.2631 7.46173L21.9614 8.17752L23.4114 6.76292L21.4066 6.47209L21.2631 7.46173ZM23.6671 6.68067C23.4943 6.14848 23.0343 5.76116 22.4811 5.68089L22.1939 7.66017C21.9941 7.63118 21.8275 7.49105 21.7649 7.29833L23.6671 6.68067ZM22.4813 5.68092L21.1115 5.48189L20.8239 7.4611L22.1937 7.66014L22.4813 5.68092ZM21.8645 6.02905L21.252 4.7876L19.4584 5.67249L20.0709 6.91394L21.8645 6.02905ZM21.2521 4.78776C21.0048 4.28625 20.4943 3.96875 19.935 3.96875V5.96875C19.7327 5.96875 19.5478 5.85377 19.4583 5.67232L21.2521 4.78776ZM19.935 4.96875C19.935 3.96875 19.935 3.96875 19.935 3.96875H19.935C19.935 3.96875 19.935 3.96875 19.935 3.96875C19.935 3.96875 19.935 3.96875 19.935 3.96875C19.935 3.96875 19.935 3.96875 19.935 3.96875C19.935 3.96875 19.935 3.96875 19.935 3.96875H19.935C19.935 3.96875 19.935 3.96875 19.935 3.96875H19.935C19.935 3.96875 19.935 3.96875 19.935 3.96875H19.935H19.935C19.935 3.96875 19.935 3.96875 19.935 3.96875C19.935 3.96875 19.935 3.96875 19.935 3.96875C19.935 3.96875 19.935 3.96875 19.935 3.96875C19.935 3.96875 19.935 3.96875 19.935 3.96875H19.935C19.935 3.96875 19.935 3.96875 19.935 3.96875C19.935 3.96875 19.935 3.96875 19.935 3.96875C19.935 3.96875 19.935 3.96875 19.935 3.96875H19.935C19.935 3.96875 19.935 3.96875 19.935 3.96875H19.935C19.935 3.96875 19.935 3.96875 19.935 3.96875C19.935 3.96875 19.935 3.96875 19.935 3.96875H19.935H19.935H19.935C19.935 3.96875 19.935 3.96875 19.935 3.96875C19.935 3.96875 19.935 3.96875 19.935 3.96875C19.935 3.96875 19.935 3.96875 19.935 3.96875H19.935H19.935H19.935C19.935 3.96875 19.935 3.96875 19.935 3.96875C19.935 3.96875 19.935 3.96875 19.935 3.96875C19.935 3.96875 19.935 3.96875 19.935 3.96875H19.935C19.935 3.96875 19.935 3.96875 19.935 3.96875C19.935 3.96875 19.935 3.96875 19.935 3.96875H19.935C19.935 3.96875 19.935 3.96875 19.935 3.96875H19.935C19.935 3.96875 19.935 3.96875 19.935 3.96875H19.935C19.935 3.96875 19.935 3.96875 19.935 3.96875H19.935C19.935 3.96875 19.935 3.96875 19.935 3.96875H19.935C19.935 3.96875 19.935 3.96875 19.935 3.96875C19.935 3.96875 19.935 3.96875 19.935 3.96875H19.935C19.935 3.96875 19.935 3.96875 19.935 3.96875C19.935 3.96875 19.935 3.96875 19.935 3.96875H19.935C19.935 3.96875 19.935 3.96875 19.935 3.96875C19.935 3.96875 19.935 3.96875 19.935 3.96875H19.935C19.935 3.96875 19.935 3.96875 19.935 3.96875C19.935 3.96875 19.935 3.96875 19.935 3.96875C19.935 3.96875 19.935 3.96875 19.935 3.96875H19.935C19.935 3.96875 19.935 3.96875 19.935 3.96875C19.935 3.96875 19.935 3.96875 19.935 3.96875C19.935 3.96875 19.935 3.96875 19.935 3.96875C19.935 3.96875 19.935 3.96875 19.935 3.96875H19.935H19.935H19.935C19.935 3.96875 19.935 3.96875 19.935 3.96875C19.935 3.96875 19.935 3.96875 19.935 3.96875C19.935 3.96875 19.935 3.96875 19.935 3.96875C19.935 3.96875 19.935 3.96875 19.935 3.96875C19.935 3.96875 19.935 3.96875 19.935 3.96875C19.935 3.96875 19.935 3.96875 19.935 3.96875C19.935 3.96875 19.935 3.96875 19.935 3.96875C19.935 3.96875 19.935 3.96875 19.935 3.96875C19.935 3.96875 19.935 3.96875 19.935 3.96875H19.935H19.935H19.935H19.935H19.935H19.935H19.935C19.935 3.96875 19.935 3.96875 19.935 3.96875C19.935 3.96875 19.935 3.96875 19.935 3.96875C19.935 3.96875 19.935 3.96875 19.935 3.96875C19.935 3.96875 19.935 3.96875 19.935 3.96875C19.935 3.96875 19.935 3.96875 19.935 3.96875C19.935 3.96875 19.935 3.96875 19.935 3.96875C19.935 3.96875 19.935 3.96875 19.935 3.96875C19.935 3.96875 19.935 3.96875 19.935 3.96875C19.935 3.96875 19.935 3.96875 19.935 3.96875H19.935H19.935H19.935C19.935 3.96875 19.935 3.96875 19.935 3.96875C19.935 3.96875 19.935 3.96875 19.935 3.96875C19.935 3.96875 19.935 3.96875 19.935 3.96875C19.935 3.96875 19.935 3.96875 19.935 3.96875H19.935H19.935C19.935 3.96875 19.935 3.96875 19.935 3.96875C19.935 3.96875 19.935 3.96875 19.935 3.96875C19.935 3.96875 19.935 3.96875 19.935 3.96875H19.935H19.935C19.935 3.96875 19.935 3.96875 19.935 3.96875C19.935 3.96875 19.935 3.96875 19.935 3.96875C19.935 3.96875 19.935 3.96875 19.935 3.96875H19.935C19.935 3.96875 19.935 3.96875 19.935 3.96875C19.935 3.96875 19.935 3.96875 19.935 3.96875H19.935H19.935C19.935 3.96875 19.935 3.96875 19.935 3.96875H19.935H19.935C19.935 3.96875 19.935 3.96875 19.935 3.96875H19.935H19.935C19.935 3.96875 19.935 3.96875 19.935 3.96875H19.935C19.935 3.96875 19.935 3.96875 19.935 3.96875C19.935 3.96875 19.935 3.96875 19.935 3.96875H19.935C19.935 3.96875 19.935 3.96875 19.935 3.96875H19.935C19.935 3.96875 19.935 3.96875 19.935 3.96875H19.935C19.935 3.96875 19.935 3.96875 19.935 3.96875C19.935 3.96875 19.935 3.96875 19.935 3.96875H19.935C19.935 3.96875 19.935 3.96875 19.935 3.96875H19.935C19.935 3.96875 19.935 3.96875 19.935 3.96875H19.935C19.935 3.96875 19.935 3.96875 19.935 3.96875C19.935 3.96875 19.935 3.96875 19.9349 3.96875H19.9349C19.9349 3.96875 19.9349 3.96875 19.9349 3.96875H19.9349C19.9349 3.96875 19.9349 3.96875 19.9349 3.96875H19.9349C19.9349 3.96875 19.9349 3.96875 19.9349 3.96875C19.9349 3.96875 19.9349 3.96875 19.9349 3.96875H19.9349C19.9349 3.96875 19.9349 3.96875 19.9349 3.96875H19.9349C19.9349 3.96875 19.9349 3.96875 19.9349 3.96875C19.9349 3.96875 19.9349 3.96875 19.9349 3.96875H19.9349C19.9349 3.96875 19.9349 3.96875 19.9349 3.96875C19.9349 3.96875 19.9349 3.96875 19.9349 3.96875C19.9349 3.96875 19.9349 3.96875 19.9349 3.96875H19.9349C19.9349 3.96875 19.9349 3.96875 19.9349 3.96875C19.9349 3.96875 19.9349 3.96875 19.9349 3.96875C19.9349 3.96875 19.9349 3.96875 19.9349 3.96875H19.9349C19.9349 3.96875 19.9349 3.96875 19.9349 3.96875C19.9349 3.96875 19.9349 3.96875 19.9349 3.96875C19.9349 3.96875 19.9349 3.96875 19.9349 3.96875H19.9349C19.9349 3.96875 19.9349 3.96875 19.9349 3.96875C19.9349 3.96875 19.9349 3.96875 19.9349 3.96875C19.9349 3.96875 19.9349 3.96875 19.9349 3.96875C19.9349 3.96875 19.9349 3.96875 19.9349 3.96875C19.9349 3.96875 19.9349 3.96875 19.9349 3.96875C19.9349 3.96875 19.9349 3.96875 19.9349 3.96875H19.9349C19.9349 3.96875 19.9349 3.96875 19.9349 3.96875C19.9349 3.96875 19.9349 3.96875 19.9349 3.96875C19.9349 3.96875 19.9349 3.96875 19.9349 3.96875C19.9349 3.96875 19.9349 3.96875 19.9349 3.96875C19.9349 3.96875 19.9349 3.96875 19.9349 3.96875C19.9349 3.96875 19.9349 3.96875 19.9349 3.96875C19.9349 3.96875 19.9349 3.96875 19.9349 3.96875C19.9349 3.96875 19.9349 3.96875 19.9349 3.96875C19.9349 3.96875 19.9349 3.96875 19.9349 3.96875C19.9349 3.96875 19.9349 3.96875 19.9349 3.96875C19.9349 3.96875 19.9349 3.96875 19.9349 3.96875C19.9349 3.96875 19.9349 3.96875 19.9349 3.96875C19.9349 3.96875 19.9349 3.96875 19.9349 3.96875C19.9349 3.96875 19.9349 3.96875 19.9349 3.96875C19.9349 3.96875 19.9349 3.96875 19.9349 3.96875C19.9349 3.96875 19.9349 3.96875 19.9349 3.96875C19.9349 3.96875 19.9349 3.96875 19.9349 3.96875C19.9349 3.96875 19.9349 3.96875 19.9349 3.96875C19.9349 3.96875 19.9349 3.96875 19.9349 3.96875C19.9349 3.96875 19.9349 3.96875 19.9349 3.96875C19.9349 3.96875 19.9349 3.96875 19.9349 3.96875C19.9349 3.96875 19.9349 3.96875 19.9349 3.96875C19.9349 3.96875 19.9349 3.96875 19.9349 3.96875C19.9349 3.96875 19.9349 3.96875 19.9349 3.96875C19.9349 3.96875 19.9349 3.96875 19.9349 3.96875C19.9349 3.96875 19.9349 3.96875 19.9349 3.96875C19.9349 3.96875 19.9349 3.96875 19.9349 3.96875C19.9349 3.96875 19.9349 3.96875 19.9349 3.96875C19.9349 3.96875 19.9349 3.96875 19.9349 3.96875C19.9349 3.96875 19.9349 3.96875 19.9349 3.96875C19.9349 3.96875 19.9349 3.96875 19.9349 3.96875C19.9349 3.96875 19.9349 3.96875 19.9349 3.96875C19.9349 3.96875 19.9349 3.96875 19.9349 3.96875C19.9349 3.96875 19.9349 3.96875 19.9349 3.96875C19.9349 3.96875 19.9349 3.96875 19.9349 3.96875C19.9349 3.96875 19.9349 3.96875 19.9349 3.96875C19.9349 3.96875 19.9349 3.96875 19.9349 3.96875C19.9349 3.96875 19.9349 3.96875 19.9349 3.96875C19.9349 3.96875 19.9349 3.96875 19.9349 3.96875C19.9349 3.96875 19.9349 3.96875 19.9349 3.96875C19.9349 3.96875 19.9349 3.96875 19.9349 3.96875C19.9349 3.96875 19.9349 3.96875 19.9349 3.96875C19.9349 3.96875 19.9349 3.96875 19.9349 3.96875C19.9349 3.96875 19.9349 3.96875 19.9349 3.96875C19.9349 3.96875 19.9349 3.96875 19.9349 3.96875C19.9349 3.96875 19.9349 3.96875 19.9349 3.96875C19.9349 3.96875 19.9349 3.96875 19.9349 3.96875C19.9349 3.96875 19.9349 3.96875 19.9349 3.96875C19.9349 3.96875 19.9349 3.96875 19.9349 3.96875C19.9349 3.96875 19.9349 3.96875 19.9349 3.96875C19.9349 3.96875 19.9349 3.96875 19.9349 3.96875C19.9349 3.96875 19.9349 3.96875 19.9349 3.96875C19.9349 3.96875 19.9349 3.96875 19.9349 3.96875C19.9349 3.96875 19.9349 3.96875 19.9349 3.96875C19.9349 3.96875 19.9349 3.96875 19.9349 3.96875C19.9349 3.96875 19.9349 3.96875 19.9349 3.96875C19.9349 3.96875 19.9349 3.96875 19.9349 3.96875C19.9349 3.96875 19.9349 3.96875 19.9349 3.96875C19.9349 3.96875 19.9349 3.96875 19.9349 3.96875C19.9349 3.96875 19.9349 3.96875 19.9349 3.96875C19.9349 3.96875 19.9349 3.96875 19.9349 3.96875C19.9349 3.96875 19.9349 3.96875 19.9349 3.96875C19.9349 3.96875 19.9349 3.96875 19.9349 3.96875C19.9349 3.96875 19.9349 3.96875 19.9349 3.96875C19.9349 3.96875 19.9349 3.96875 19.9349 3.96875C19.9349 3.96875 19.9349 3.96875 19.9349 3.96875C19.9349 3.96875 19.9349 3.96875 19.9349 3.96875C19.9349 3.96875 19.9349 3.96875 19.9349 3.96875C19.9349 3.96875 19.9349 3.96875 19.9349 3.96875C19.9349 3.96875 19.9349 3.96875 19.9349 3.96875C19.9349 3.96875 19.9349 3.96875 19.9349 3.96875C19.9349 3.96875 19.9349 3.96875 19.9349 3.96875C19.9349 3.96875 19.9349 3.96875 19.9349 3.96875C19.9349 3.96875 19.9349 3.96875 19.9349 3.96875C19.9349 3.96875 19.9349 3.96875 19.9349 3.96875C19.9349 3.96875 19.9349 3.96875 19.9349 3.96875C19.9349 3.96875 19.9349 3.96875 19.9349 3.96875C19.9349 3.96875 19.9349 3.96875 19.9349 3.96875C19.9349 3.96875 19.9349 3.96875 19.9349 3.96875C19.9349 3.96875 19.9349 3.96875 19.9349 3.96875C19.9349 3.96875 19.9349 3.96875 19.9349 3.96875C19.9349 3.96875 19.9349 3.96875 19.9349 3.96875C19.9349 3.96875 19.9349 3.96875 19.9349 3.96875C19.9349 3.96875 19.9349 3.96875 19.9349 3.96875C19.9349 3.96875 19.9349 3.96875 19.9349 3.96875C19.9349 3.96875 19.9349 3.96875 19.9349 3.96875C19.9349 3.96875 19.9349 3.96875 19.9349 3.96875C19.9349 3.96875 19.9349 3.96875 19.9349 3.96875C19.9349 3.96875 19.9349 3.96875 19.9349 3.96875C19.9349 3.96875 19.9349 3.96875 19.9349 3.96875C19.9349 3.96875 19.9349 3.96875 19.9349 3.96875C19.9349 3.96875 19.9349 3.96875 19.9349 3.96875C19.9349 3.96875 19.9349 3.96875 19.9349 3.96875C19.9349 3.96875 19.9349 3.96875 19.9349 3.96875C19.9349 3.96875 19.9349 3.96875 19.9349 3.96875C19.9349 3.96875 19.9349 3.96875 19.9349 3.96875C19.9349 3.96875 19.9349 3.96875 19.9349 3.96875C19.9349 3.96875 19.9349 3.96875 19.9349 3.96875C19.9349 3.96875 19.9349 3.96875 19.9349 3.96875C19.9349 3.96875 19.9349 3.96875 19.9349 3.96875C19.9349 3.96875 19.9349 3.96875 19.9349 3.96875C19.9349 3.96875 19.9349 3.96875 19.9349 3.96875C19.9349 3.96875 19.9349 3.96875 19.9349 3.96875C19.9349 3.96875 19.9349 3.96875 19.9349 3.96875C19.9349 3.96875 19.9349 3.96875 19.9349 3.96875C19.9349 3.96875 19.9349 3.96875 19.9349 3.96875C19.9349 3.96875 19.9349 3.96875 19.9349 3.96875C19.9349 3.96875 19.9349 3.96875 19.9349 3.96875C19.9349 3.96875 19.9349 3.96875 19.9349 3.96875C19.9349 3.96875 19.9349 3.96875 19.9349 3.96875C19.9349 3.96875 19.9349 3.96875 19.9349 3.96875C19.9349 3.96875 19.9349 3.96875 19.9349 3.96875C19.9349 3.96875 19.9349 3.96875 19.9349 3.96875C19.9349 3.96875 19.9349 3.96875 19.9349 3.96875C19.9349 3.96875 19.9349 3.96875 19.9349 3.96875C19.9349 3.96875 19.9349 3.96875 19.9349 3.96875C19.9349 3.96875 19.9349 3.96875 19.9349 3.96875C19.9349 3.96875 19.9349 3.96875 19.9349 3.96875C19.9349 3.96875 19.9349 3.96875 19.9349 3.96875C19.9349 3.96875 19.9349 3.96875 19.9349 3.96875C19.9349 3.96875 19.9349 3.96875 19.9349 3.96875C19.9349 3.96875 19.9349 3.96875 19.9349 3.96875C19.9349 3.96875 19.9349 3.96875 19.9349 3.96875C19.9349 3.96875 19.9349 3.96875 19.9349 3.96875C19.9349 3.96875 19.9349 3.96875 19.9349 3.96875C19.9349 3.96875 19.9349 3.96875 19.9349 3.96875C19.9349 3.96875 19.9349 3.96875 19.9349 3.96875C19.9349 3.96875 19.9349 3.96875 19.9349 3.96875C19.9349 3.96875 19.9349 3.96875 19.9349 3.96875C19.9349 3.96875 19.9349 3.96875 19.9349 3.96875C19.9349 3.96875 19.9349 3.96875 19.9349 3.96875C19.9349 3.96875 19.9349 3.96875 19.9349 3.96875C19.9349 3.96875 19.9348 3.96875 19.9348 3.96875C19.9348 3.96875 19.9348 3.96875 19.9348 3.96875C19.9348 3.96875 19.9348 3.96875 19.9348 3.96875C19.9348 3.96875 19.9348 3.96875 19.9348 3.96875C19.9348 3.96875 19.9348 3.96875 19.9348 3.96875C19.9348 3.96875 19.9348 3.96875 19.9348 3.96875C19.9348 3.96875 19.9348 3.96875 19.9348 3.96875C19.9348 3.96875 19.9348 3.96875 19.9348 3.96875C19.9348 3.96875 19.9348 3.96875 19.9348 3.96875C19.9348 3.96875 19.9348 3.96875 19.9348 3.96875C19.9348 3.96875 19.9348 3.96875 19.9348 3.96875C19.9348 3.96875 19.9348 3.96875 19.9348 3.96875C19.9348 3.96875 19.9348 3.96875 19.9348 3.96875C19.9348 3.96875 19.9348 3.96875 19.9348 3.96875C19.9348 3.96875 19.9348 3.96875 19.9348 3.96875C19.9348 3.96875 19.9348 3.96875 19.9348 3.96875C19.9348 3.96875 19.9348 3.96875 19.9348 3.96875C19.9348 3.96875 19.9348 3.96875 19.9348 3.96875C19.9348 3.96875 19.9348 3.96875 19.9348 3.96875C19.9348 3.96875 19.9348 3.96875 19.9348 3.96875C19.9348 3.96875 19.9348 3.96875 19.9348 3.96875C19.9348 3.96875 19.9348 3.96875 19.9348 3.96875C19.9348 3.96875 19.9348 3.96875 19.9348 3.96875C19.9348 3.96875 19.9348 3.96875 19.9348 3.96875C19.9348 3.96875 19.9348 3.96875 19.9348 3.96875C19.9348 3.96875 19.9348 3.96875 19.9348 3.96875C19.9348 3.96875 19.9348 3.96875 19.9348 3.96875C19.9348 3.96875 19.9348 3.96875 19.9348 3.96875C19.9348 3.96875 19.9348 3.96875 19.9348 3.96875C19.9348 3.96875 19.9348 3.96875 19.9348 3.96875C19.9348 3.96875 19.9348 3.96875 19.9348 3.96875C19.9348 3.96875 19.9348 3.96875 19.9348 3.96875C19.9348 3.96875 19.9348 3.96875 19.9348 3.96875C19.9348 3.96875 19.9348 3.96875 19.9348 3.96875C19.9348 3.96875 19.9348 3.96875 19.9348 3.96875C19.9348 3.96875 19.9348 3.96875 19.9348 3.96875C19.9348 3.96875 19.9348 3.96875 19.9348 3.96875C19.9348 3.96875 19.9348 3.96875 19.9348 3.96875C19.9348 3.96875 19.9348 3.96875 19.9348 3.96875C19.9348 3.96875 19.9348 3.96875 19.9348 3.96875C19.9348 3.96875 19.9348 3.96875 19.9348 3.96875C19.9348 3.96875 19.9348 3.96875 19.9348 3.96875C19.9348 3.96875 19.9348 3.96875 19.9348 3.96875C19.9348 3.96875 19.9348 3.96875 19.9348 3.96875C19.9348 3.96875 19.9348 3.96875 19.9348 3.96875C19.9348 3.96875 19.9348 3.96875 19.9348 3.96875C19.9348 3.96875 19.9348 3.96875 19.9348 3.96875C19.9348 3.96875 19.9348 3.96875 19.9348 3.96875V5.96875C19.9348 5.96875 19.9348 5.96875 19.9348 5.96875C19.9348 5.96875 19.9348 5.96875 19.9348 5.96875C19.9348 5.96875 19.9348 5.96875 19.9348 5.96875C19.9348 5.96875 19.9348 5.96875 19.9348 5.96875C19.9348 5.96875 19.9348 5.96875 19.9348 5.96875C19.9348 5.96875 19.9348 5.96875 19.9348 5.96875C19.9348 5.96875 19.9348 5.96875 19.9348 5.96875C19.9348 5.96875 19.9348 5.96875 19.9348 5.96875C19.9348 5.96875 19.9348 5.96875 19.9348 5.96875C19.9348 5.96875 19.9348 5.96875 19.9348 5.96875C19.9348 5.96875 19.9348 5.96875 19.9348 5.96875C19.9348 5.96875 19.9348 5.96875 19.9348 5.96875C19.9348 5.96875 19.9348 5.96875 19.9348 5.96875C19.9348 5.96875 19.9348 5.96875 19.9348 5.96875C19.9348 5.96875 19.9348 5.96875 19.9348 5.96875C19.9348 5.96875 19.9348 5.96875 19.9348 5.96875C19.9348 5.96875 19.9348 5.96875 19.9348 5.96875C19.9348 5.96875 19.9348 5.96875 19.9348 5.96875C19.9348 5.96875 19.9348 5.96875 19.9348 5.96875C19.9348 5.96875 19.9348 5.96875 19.9348 5.96875C19.9348 5.96875 19.9348 5.96875 19.9348 5.96875C19.9348 5.96875 19.9348 5.96875 19.9348 5.96875C19.9348 5.96875 19.9348 5.96875 19.9348 5.96875C19.9348 5.96875 19.9348 5.96875 19.9348 5.96875C19.9348 5.96875 19.9348 5.96875 19.9348 5.96875C19.9348 5.96875 19.9348 5.96875 19.9348 5.96875C19.9348 5.96875 19.9348 5.96875 19.9348 5.96875C19.9348 5.96875 19.9348 5.96875 19.9348 5.96875C19.9348 5.96875 19.9348 5.96875 19.9348 5.96875C19.9348 5.96875 19.9348 5.96875 19.9348 5.96875C19.9348 5.96875 19.9348 5.96875 19.9348 5.96875C19.9348 5.96875 19.9348 5.96875 19.9348 5.96875C19.9348 5.96875 19.9348 5.96875 19.9348 5.96875C19.9348 5.96875 19.9348 5.96875 19.9348 5.96875C19.9348 5.96875 19.9348 5.96875 19.9348 5.96875C19.9348 5.96875 19.9348 5.96875 19.9348 5.96875C19.9348 5.96875 19.9348 5.96875 19.9348 5.96875C19.9348 5.96875 19.9348 5.96875 19.9348 5.96875C19.9348 5.96875 19.9348 5.96875 19.9348 5.96875C19.9348 5.96875 19.9348 5.96875 19.9348 5.96875C19.9348 5.96875 19.9348 5.96875 19.9348 5.96875C19.9348 5.96875 19.9348 5.96875 19.9348 5.96875C19.9348 5.96875 19.9348 5.96875 19.9348 5.96875C19.9348 5.96875 19.9348 5.96875 19.9348 5.96875C19.9348 5.96875 19.9348 5.96875 19.9348 5.96875C19.9348 5.96875 19.9348 5.96875 19.9348 5.96875C19.9348 5.96875 19.9348 5.96875 19.9348 5.96875C19.9348 5.96875 19.9349 5.96875 19.9349 5.96875C19.9349 5.96875 19.9349 5.96875 19.9349 5.96875C19.9349 5.96875 19.9349 5.96875 19.9349 5.96875C19.9349 5.96875 19.9349 5.96875 19.9349 5.96875C19.9349 5.96875 19.9349 5.96875 19.9349 5.96875C19.9349 5.96875 19.9349 5.96875 19.9349 5.96875C19.9349 5.96875 19.9349 5.96875 19.9349 5.96875C19.9349 5.96875 19.9349 5.96875 19.9349 5.96875C19.9349 5.96875 19.9349 5.96875 19.9349 5.96875C19.9349 5.96875 19.9349 5.96875 19.9349 5.96875C19.9349 5.96875 19.9349 5.96875 19.9349 5.96875C19.9349 5.96875 19.9349 5.96875 19.9349 5.96875C19.9349 5.96875 19.9349 5.96875 19.9349 5.96875C19.9349 5.96875 19.9349 5.96875 19.9349 5.96875C19.9349 5.96875 19.9349 5.96875 19.9349 5.96875C19.9349 5.96875 19.9349 5.96875 19.9349 5.96875C19.9349 5.96875 19.9349 5.96875 19.9349 5.96875C19.9349 5.96875 19.9349 5.96875 19.9349 5.96875C19.9349 5.96875 19.9349 5.96875 19.9349 5.96875C19.9349 5.96875 19.9349 5.96875 19.9349 5.96875C19.9349 5.96875 19.9349 5.96875 19.9349 5.96875C19.9349 5.96875 19.9349 5.96875 19.9349 5.96875C19.9349 5.96875 19.9349 5.96875 19.9349 5.96875C19.9349 5.96875 19.9349 5.96875 19.9349 5.96875C19.9349 5.96875 19.9349 5.96875 19.9349 5.96875C19.9349 5.96875 19.9349 5.96875 19.9349 5.96875C19.9349 5.96875 19.9349 5.96875 19.9349 5.96875C19.9349 5.96875 19.9349 5.96875 19.9349 5.96875C19.9349 5.96875 19.9349 5.96875 19.9349 5.96875C19.9349 5.96875 19.9349 5.96875 19.9349 5.96875C19.9349 5.96875 19.9349 5.96875 19.9349 5.96875C19.9349 5.96875 19.9349 5.96875 19.9349 5.96875C19.9349 5.96875 19.9349 5.96875 19.9349 5.96875C19.9349 5.96875 19.9349 5.96875 19.9349 5.96875C19.9349 5.96875 19.9349 5.96875 19.9349 5.96875C19.9349 5.96875 19.9349 5.96875 19.9349 5.96875C19.9349 5.96875 19.9349 5.96875 19.9349 5.96875C19.9349 5.96875 19.9349 5.96875 19.9349 5.96875C19.9349 5.96875 19.9349 5.96875 19.9349 5.96875C19.9349 5.96875 19.9349 5.96875 19.9349 5.96875C19.9349 5.96875 19.9349 5.96875 19.9349 5.96875C19.9349 5.96875 19.9349 5.96875 19.9349 5.96875C19.9349 5.96875 19.9349 5.96875 19.9349 5.96875C19.9349 5.96875 19.9349 5.96875 19.9349 5.96875C19.9349 5.96875 19.9349 5.96875 19.9349 5.96875C19.9349 5.96875 19.9349 5.96875 19.9349 5.96875C19.9349 5.96875 19.9349 5.96875 19.9349 5.96875C19.9349 5.96875 19.9349 5.96875 19.9349 5.96875C19.9349 5.96875 19.9349 5.96875 19.9349 5.96875C19.9349 5.96875 19.9349 5.96875 19.9349 5.96875C19.9349 5.96875 19.9349 5.96875 19.9349 5.96875C19.9349 5.96875 19.9349 5.96875 19.9349 5.96875C19.9349 5.96875 19.9349 5.96875 19.9349 5.96875C19.9349 5.96875 19.9349 5.96875 19.9349 5.96875C19.9349 5.96875 19.9349 5.96875 19.9349 5.96875C19.9349 5.96875 19.9349 5.96875 19.9349 5.96875C19.9349 5.96875 19.9349 5.96875 19.9349 5.96875C19.9349 5.96875 19.9349 5.96875 19.9349 5.96875C19.9349 5.96875 19.9349 5.96875 19.9349 5.96875C19.9349 5.96875 19.9349 5.96875 19.9349 5.96875C19.9349 5.96875 19.9349 5.96875 19.9349 5.96875C19.9349 5.96875 19.9349 5.96875 19.9349 5.96875C19.9349 5.96875 19.9349 5.96875 19.9349 5.96875C19.9349 5.96875 19.9349 5.96875 19.9349 5.96875C19.9349 5.96875 19.9349 5.96875 19.9349 5.96875C19.9349 5.96875 19.9349 5.96875 19.9349 5.96875C19.9349 5.96875 19.9349 5.96875 19.9349 5.96875C19.9349 5.96875 19.9349 5.96875 19.9349 5.96875C19.9349 5.96875 19.9349 5.96875 19.9349 5.96875C19.9349 5.96875 19.9349 5.96875 19.9349 5.96875C19.9349 5.96875 19.9349 5.96875 19.9349 5.96875C19.9349 5.96875 19.9349 5.96875 19.9349 5.96875C19.9349 5.96875 19.9349 5.96875 19.9349 5.96875C19.9349 5.96875 19.9349 5.96875 19.9349 5.96875C19.9349 5.96875 19.9349 5.96875 19.9349 5.96875C19.9349 5.96875 19.9349 5.96875 19.9349 5.96875C19.9349 5.96875 19.9349 5.96875 19.9349 5.96875C19.9349 5.96875 19.9349 5.96875 19.9349 5.96875C19.9349 5.96875 19.9349 5.96875 19.9349 5.96875C19.9349 5.96875 19.9349 5.96875 19.9349 5.96875C19.9349 5.96875 19.9349 5.96875 19.9349 5.96875C19.9349 5.96875 19.9349 5.96875 19.9349 5.96875C19.9349 5.96875 19.9349 5.96875 19.9349 5.96875C19.9349 5.96875 19.9349 5.96875 19.9349 5.96875C19.9349 5.96875 19.9349 5.96875 19.9349 5.96875C19.9349 5.96875 19.9349 5.96875 19.9349 5.96875C19.9349 5.96875 19.9349 5.96875 19.9349 5.96875C19.9349 5.96875 19.9349 5.96875 19.9349 5.96875C19.9349 5.96875 19.9349 5.96875 19.9349 5.96875C19.9349 5.96875 19.9349 5.96875 19.9349 5.96875C19.9349 5.96875 19.9349 5.96875 19.9349 5.96875C19.9349 5.96875 19.9349 5.96875 19.9349 5.96875C19.9349 5.96875 19.9349 5.96875 19.9349 5.96875C19.9349 5.96875 19.9349 5.96875 19.9349 5.96875C19.9349 5.96875 19.9349 5.96875 19.9349 5.96875C19.9349 5.96875 19.9349 5.96875 19.9349 5.96875C19.9349 5.96875 19.9349 5.96875 19.9349 5.96875C19.9349 5.96875 19.9349 5.96875 19.9349 5.96875C19.9349 5.96875 19.9349 5.96875 19.9349 5.96875C19.9349 5.96875 19.9349 5.96875 19.9349 5.96875C19.9349 5.96875 19.9349 5.96875 19.9349 5.96875C19.9349 5.96875 19.9349 5.96875 19.9349 5.96875C19.9349 5.96875 19.9349 5.96875 19.9349 5.96875C19.9349 5.96875 19.9349 5.96875 19.9349 5.96875C19.9349 5.96875 19.9349 5.96875 19.9349 5.96875C19.9349 5.96875 19.9349 5.96875 19.9349 5.96875C19.9349 5.96875 19.9349 5.96875 19.9349 5.96875C19.9349 5.96875 19.9349 5.96875 19.9349 5.96875C19.9349 5.96875 19.9349 5.96875 19.9349 5.96875C19.9349 5.96875 19.9349 5.96875 19.9349 5.96875C19.9349 5.96875 19.9349 5.96875 19.9349 5.96875C19.9349 5.96875 19.9349 5.96875 19.9349 5.96875C19.9349 5.96875 19.9349 5.96875 19.9349 5.96875C19.9349 5.96875 19.9349 5.96875 19.9349 5.96875C19.9349 5.96875 19.9349 5.96875 19.9349 5.96875C19.9349 5.96875 19.9349 5.96875 19.9349 5.96875C19.9349 5.96875 19.9349 5.96875 19.9349 5.96875C19.9349 5.96875 19.9349 5.96875 19.9349 5.96875C19.9349 5.96875 19.9349 5.96875 19.9349 5.96875C19.9349 5.96875 19.9349 5.96875 19.9349 5.96875C19.9349 5.96875 19.9349 5.96875 19.9349 5.96875C19.9349 5.96875 19.9349 5.96875 19.9349 5.96875C19.9349 5.96875 19.9349 5.96875 19.9349 5.96875C19.9349 5.96875 19.9349 5.96875 19.9349 5.96875C19.9349 5.96875 19.9349 5.96875 19.9349 5.96875C19.9349 5.96875 19.9349 5.96875 19.9349 5.96875C19.9349 5.96875 19.9349 5.96875 19.9349 5.96875C19.9349 5.96875 19.9349 5.96875 19.9349 5.96875C19.9349 5.96875 19.9349 5.96875 19.9349 5.96875C19.9349 5.96875 19.9349 5.96875 19.9349 5.96875C19.9349 5.96875 19.9349 5.96875 19.9349 5.96875C19.9349 5.96875 19.9349 5.96875 19.9349 5.96875C19.9349 5.96875 19.9349 5.96875 19.9349 5.96875H19.9349C19.9349 5.96875 19.9349 5.96875 19.9349 5.96875C19.9349 5.96875 19.9349 5.96875 19.9349 5.96875C19.9349 5.96875 19.9349 5.96875 19.9349 5.96875C19.9349 5.96875 19.9349 5.96875 19.9349 5.96875C19.9349 5.96875 19.9349 5.96875 19.9349 5.96875C19.9349 5.96875 19.9349 5.96875 19.9349 5.96875H19.9349C19.9349 5.96875 19.9349 5.96875 19.9349 5.96875C19.9349 5.96875 19.9349 5.96875 19.9349 5.96875C19.9349 5.96875 19.9349 5.96875 19.9349 5.96875H19.9349C19.9349 5.96875 19.9349 5.96875 19.9349 5.96875C19.9349 5.96875 19.9349 5.96875 19.9349 5.96875C19.9349 5.96875 19.9349 5.96875 19.9349 5.96875H19.9349C19.9349 5.96875 19.9349 5.96875 19.9349 5.96875C19.9349 5.96875 19.9349 5.96875 19.9349 5.96875C19.9349 5.96875 19.9349 5.96875 19.9349 5.96875H19.9349C19.9349 5.96875 19.9349 5.96875 19.9349 5.96875C19.9349 5.96875 19.9349 5.96875 19.9349 5.96875H19.9349C19.9349 5.96875 19.9349 5.96875 19.9349 5.96875H19.9349C19.9349 5.96875 19.9349 5.96875 19.9349 5.96875C19.9349 5.96875 19.9349 5.96875 19.9349 5.96875H19.9349C19.9349 5.96875 19.9349 5.96875 19.9349 5.96875H19.9349C19.9349 5.96875 19.9349 5.96875 19.9349 5.96875H19.9349C19.935 5.96875 19.935 5.96875 19.935 5.96875C19.935 5.96875 19.935 5.96875 19.935 5.96875H19.935C19.935 5.96875 19.935 5.96875 19.935 5.96875H19.935C19.935 5.96875 19.935 5.96875 19.935 5.96875H19.935C19.935 5.96875 19.935 5.96875 19.935 5.96875C19.935 5.96875 19.935 5.96875 19.935 5.96875H19.935C19.935 5.96875 19.935 5.96875 19.935 5.96875H19.935C19.935 5.96875 19.935 5.96875 19.935 5.96875H19.935C19.935 5.96875 19.935 5.96875 19.935 5.96875C19.935 5.96875 19.935 5.96875 19.935 5.96875H19.935C19.935 5.96875 19.935 5.96875 19.935 5.96875H19.935H19.935C19.935 5.96875 19.935 5.96875 19.935 5.96875H19.935H19.935C19.935 5.96875 19.935 5.96875 19.935 5.96875H19.935H19.935C19.935 5.96875 19.935 5.96875 19.935 5.96875C19.935 5.96875 19.935 5.96875 19.935 5.96875H19.935C19.935 5.96875 19.935 5.96875 19.935 5.96875C19.935 5.96875 19.935 5.96875 19.935 5.96875C19.935 5.96875 19.935 5.96875 19.935 5.96875H19.935H19.935C19.935 5.96875 19.935 5.96875 19.935 5.96875C19.935 5.96875 19.935 5.96875 19.935 5.96875C19.935 5.96875 19.935 5.96875 19.935 5.96875H19.935H19.935C19.935 5.96875 19.935 5.96875 19.935 5.96875C19.935 5.96875 19.935 5.96875 19.935 5.96875C19.935 5.96875 19.935 5.96875 19.935 5.96875C19.935 5.96875 19.935 5.96875 19.935 5.96875H19.935H19.935H19.935C19.935 5.96875 19.935 5.96875 19.935 5.96875C19.935 5.96875 19.935 5.96875 19.935 5.96875C19.935 5.96875 19.935 5.96875 19.935 5.96875C19.935 5.96875 19.935 5.96875 19.935 5.96875C19.935 5.96875 19.935 5.96875 19.935 5.96875C19.935 5.96875 19.935 5.96875 19.935 5.96875C19.935 5.96875 19.935 5.96875 19.935 5.96875C19.935 5.96875 19.935 5.96875 19.935 5.96875C19.935 5.96875 19.935 5.96875 19.935 5.96875H19.935H19.935H19.935H19.935H19.935H19.935H19.935C19.935 5.96875 19.935 5.96875 19.935 5.96875C19.935 5.96875 19.935 5.96875 19.935 5.96875C19.935 5.96875 19.935 5.96875 19.935 5.96875C19.935 5.96875 19.935 5.96875 19.935 5.96875C19.935 5.96875 19.935 5.96875 19.935 5.96875C19.935 5.96875 19.935 5.96875 19.935 5.96875C19.935 5.96875 19.935 5.96875 19.935 5.96875C19.935 5.96875 19.935 5.96875 19.935 5.96875C19.935 5.96875 19.935 5.96875 19.935 5.96875H19.935H19.935H19.935C19.935 5.96875 19.935 5.96875 19.935 5.96875C19.935 5.96875 19.935 5.96875 19.935 5.96875C19.935 5.96875 19.935 5.96875 19.935 5.96875C19.935 5.96875 19.935 5.96875 19.935 5.96875H19.935C19.935 5.96875 19.935 5.96875 19.935 5.96875C19.935 5.96875 19.935 5.96875 19.935 5.96875C19.935 5.96875 19.935 5.96875 19.935 5.96875H19.935C19.935 5.96875 19.935 5.96875 19.935 5.96875C19.935 5.96875 19.935 5.96875 19.935 5.96875H19.935C19.935 5.96875 19.935 5.96875 19.935 5.96875C19.935 5.96875 19.935 5.96875 19.935 5.96875H19.935C19.935 5.96875 19.935 5.96875 19.935 5.96875C19.935 5.96875 19.935 5.96875 19.935 5.96875H19.935C19.935 5.96875 19.935 5.96875 19.935 5.96875H19.935C19.935 5.96875 19.935 5.96875 19.935 5.96875H19.935C19.935 5.96875 19.935 5.96875 19.935 5.96875H19.935C19.935 5.96875 19.935 5.96875 19.935 5.96875H19.935C19.935 5.96875 19.935 5.96875 19.935 5.96875C19.935 5.96875 19.935 5.96875 19.935 5.96875H19.935C19.935 5.96875 19.935 5.96875 19.935 5.96875C19.935 5.96875 19.935 5.96875 19.935 5.96875C19.935 5.96875 19.935 5.96875 19.935 5.96875H19.935H19.935H19.935C19.935 5.96875 19.935 5.96875 19.935 5.96875C19.935 5.96875 19.935 5.96875 19.935 5.96875C19.935 5.96875 19.935 5.96875 19.935 5.96875H19.935H19.935H19.935C19.935 5.96875 19.935 5.96875 19.935 5.96875C19.935 5.96875 19.935 5.96875 19.935 5.96875H19.935C19.935 5.96875 19.935 5.96875 19.935 5.96875H19.935C19.935 5.96875 19.935 5.96875 19.935 5.96875C19.935 5.96875 19.935 5.96875 19.935 5.96875C19.935 5.96875 19.935 5.96875 19.935 5.96875H19.935C19.935 5.96875 19.935 5.96875 19.935 5.96875C19.935 5.96875 19.935 5.96875 19.935 5.96875C19.935 5.96875 19.935 5.96875 19.935 5.96875C19.935 5.96875 19.935 5.96875 19.935 5.96875H19.935H19.935C19.935 5.96875 19.935 5.96875 19.935 5.96875H19.935C19.935 5.96875 19.935 5.96875 19.935 5.96875H19.935C19.935 5.96875 19.935 5.96875 19.935 5.96875C19.935 5.96875 19.935 5.96875 19.935 5.96875C19.935 5.96875 19.935 5.96875 19.935 5.96875C19.935 5.96875 19.935 5.96875 19.935 5.96875H19.935C19.935 5.96875 19.935 5.96875 19.935 4.96875ZM19.9348 3.96875C19.3759 3.96875 18.8651 4.28605 18.6177 4.78776L20.4115 5.67232C20.3219 5.85396 20.137 5.96875 19.9348 5.96875V3.96875ZM18.6179 4.78738L18.005 6.02884L19.7984 6.91415L20.4113 5.6727L18.6179 4.78738ZM18.758 5.48189L17.388 5.68092L17.6755 7.66014L19.0455 7.46111L18.758 5.48189ZM17.388 5.68091C16.8348 5.76125 16.3751 6.14867 16.2023 6.68067L18.1045 7.29833C18.042 7.49085 17.8756 7.63108 17.6754 7.66015L17.388 5.68091ZM16.2026 6.67974C16.0293 7.21184 16.1734 7.79591 16.5741 8.18625L17.9697 6.75369C18.1148 6.89501 18.167 7.10664 18.1042 7.29926L16.2026 6.67974ZM16.5737 8.18588L17.5649 9.1525L18.9612 7.72067L17.9701 6.75406L16.5737 8.18588ZM17.2774 8.26751L17.0434 9.63165L19.0146 9.96979L19.2487 8.60566L17.2774 8.26751ZM17.0433 9.63233C16.9493 10.1826 17.1752 10.7394 17.628 11.0682L18.8032 9.4499C18.9671 9.56887 19.0487 9.77038 19.0148 9.96911L17.0433 9.63233ZM17.6275 11.0678C18.0795 11.3965 18.6792 11.4403 19.1743 11.1801L18.2439 9.40971C18.4233 9.31543 18.6403 9.33142 18.8037 9.45025L17.6275 11.0678ZM19.1742 11.1802L20.3999 10.5362L19.4697 8.76569L18.244 9.40967L19.1742 11.1802ZM19.4696 10.5361L20.6949 11.1801L21.6254 9.40973L20.4 8.76574L19.4696 10.5361ZM20.6949 11.1801C21.19 11.4403 21.7899 11.3965 22.2419 11.0678L21.0657 9.45025C21.2292 9.33138 21.446 9.31545 21.6253 9.40971L20.6949 11.1801ZM22.2412 11.0683C22.6945 10.7393 22.9198 10.182 22.8259 9.63233L20.8545 9.96911C20.8206 9.77101 20.9017 9.56932 21.0664 9.44976L22.2412 11.0683ZM22.8258 9.63165L22.5918 8.26751L20.6206 8.60566L20.8546 9.96979L22.8258 9.63165ZM22.3043 9.15256L23.2956 8.18595L21.8994 6.75399L20.9081 7.72061L22.3043 9.15256ZM23.2953 8.18625C23.6966 7.79534 23.8394 7.21143 23.6671 6.68067L21.7649 7.29833C21.7028 7.10705 21.7541 6.89558 21.8997 6.75369L23.2953 8.18625ZM20.0779 7.22091C19.7311 7.55849 19.573 8.04513 19.6552 8.52196L21.6262 8.18239C21.6559 8.35526 21.5986 8.53172 21.473 8.65397L20.0779 7.22091ZM19.655 8.52111L19.77 9.19201L21.7413 8.85414L21.6263 8.18324L19.655 8.52111ZM21.2208 8.13781L20.6182 7.82122L19.688 9.59174L20.2906 9.90833L21.2208 8.13781ZM20.6182 7.82125C20.1906 7.59655 19.6794 7.59626 19.2513 7.82151L20.1826 9.59145C20.0273 9.67315 19.8423 9.67286 19.6879 9.59171L20.6182 7.82125ZM19.2519 7.82116L18.6488 8.13793L19.5787 9.90858L20.1819 9.59181L19.2519 7.82116ZM20.0993 9.1924L20.2145 8.52132L18.2433 8.18302L18.1282 8.8541L20.0993 9.1924ZM20.2146 8.52081C20.296 8.04486 20.1384 7.55895 19.7923 7.22148L18.396 8.65339C18.2708 8.53126 18.2138 8.35553 18.2433 8.18354L20.2146 8.52081ZM19.7923 7.22152L19.3046 6.74581L17.9082 8.17765L18.396 8.65336L19.7923 7.22152ZM18.7499 8.45137L19.424 8.35359L19.1368 6.37431L18.4628 6.47209L18.7499 8.45137ZM19.424 8.35359C19.9026 8.28415 20.316 7.98358 20.53 7.55054L18.7369 6.66467C18.8142 6.50811 18.9636 6.39944 19.1368 6.37431L19.424 8.35359ZM20.5301 7.55019L20.8315 6.93953L19.0381 6.05437L18.7367 6.66502L20.5301 7.55019ZM19.038 6.93942L19.3392 7.5499L21.1328 6.66495L20.8316 6.05447L19.038 6.93942ZM19.3392 7.54988C19.5531 7.98338 19.9667 8.28413 20.4455 8.35359L20.7326 6.37431C20.906 6.39946 21.0555 6.50832 21.1328 6.66496L19.3392 7.54988ZM20.4455 8.35359L21.1195 8.45137L21.4066 6.47209L20.7326 6.37431L20.4455 8.35359ZM20.5647 6.74594L20.0771 7.22165L21.4738 8.65323L21.9614 8.17752L20.5647 6.74594Z" fill="#737791" mask="url(#path-12-inside-6_85_759)"/>
<mask id="path-14-inside-7_85_759" fill="white">
<path d="M6.77849 6.9895C6.72338 6.81976 6.57671 6.69617 6.40001 6.67053L5.0302 6.4715L4.41771 5.23004C4.3388 5.07001 4.17601 4.96875 3.99749 4.96875C3.81896 4.96875 3.656 5.07001 3.57708 5.23004L2.96422 6.4715L1.59423 6.67053C1.41771 6.69617 1.27105 6.81976 1.21593 6.9895C1.16063 7.15924 1.20659 7.34546 1.3344 7.46997L2.32555 8.43658L2.09173 9.80072C2.06151 9.9765 2.13384 10.1541 2.27813 10.259C2.42241 10.364 2.61376 10.3779 2.77178 10.2949L3.9973 9.65094L5.22265 10.2949C5.38158 10.3784 5.57274 10.3634 5.7163 10.259C5.86059 10.1543 5.93291 9.9765 5.9027 9.80072L5.66869 8.43658L6.66002 7.46997C6.78783 7.34546 6.83361 7.15924 6.77849 6.9895ZM4.83776 7.93744C4.72735 8.0451 4.67699 8.2002 4.70299 8.35217L4.81817 9.02307L4.21538 8.70648C4.07897 8.6347 3.91582 8.6347 3.77941 8.70648L3.17608 9.02325L3.29125 8.35217C3.31743 8.2002 3.2669 8.0451 3.15648 7.93744L2.66869 7.46173L3.34288 7.36395C3.49541 7.3418 3.62743 7.24585 3.69573 7.1076L3.99712 6.49695L4.29833 7.10742C4.36663 7.24585 4.49865 7.3418 4.65136 7.36395L5.32537 7.46173L4.83776 7.93744Z"/>
</mask>
<path d="M6.77849 6.9895C6.72338 6.81976 6.57671 6.69617 6.40001 6.67053L5.0302 6.4715L4.41771 5.23004C4.3388 5.07001 4.17601 4.96875 3.99749 4.96875C3.81896 4.96875 3.656 5.07001 3.57708 5.23004L2.96422 6.4715L1.59423 6.67053C1.41771 6.69617 1.27105 6.81976 1.21593 6.9895C1.16063 7.15924 1.20659 7.34546 1.3344 7.46997L2.32555 8.43658L2.09173 9.80072C2.06151 9.9765 2.13384 10.1541 2.27813 10.259C2.42241 10.364 2.61376 10.3779 2.77178 10.2949L3.9973 9.65094L5.22265 10.2949C5.38158 10.3784 5.57274 10.3634 5.7163 10.259C5.86059 10.1543 5.93291 9.9765 5.9027 9.80072L5.66869 8.43658L6.66002 7.46997C6.78783 7.34546 6.83361 7.15924 6.77849 6.9895ZM4.83776 7.93744C4.72735 8.0451 4.67699 8.2002 4.70299 8.35217L4.81817 9.02307L4.21538 8.70648C4.07897 8.6347 3.91582 8.6347 3.77941 8.70648L3.17608 9.02325L3.29125 8.35217C3.31743 8.2002 3.2669 8.0451 3.15648 7.93744L2.66869 7.46173L3.34288 7.36395C3.49541 7.3418 3.62743 7.24585 3.69573 7.1076L3.99712 6.49695L4.29833 7.10742C4.36663 7.24585 4.49865 7.3418 4.65136 7.36395L5.32537 7.46173L4.83776 7.93744Z" fill="#737791"/>
<path d="M6.40001 6.67053L6.25622 7.66014L6.25644 7.66017L6.40001 6.67053ZM5.0302 6.4715L4.13341 6.91394L4.36605 7.3855L4.88641 7.4611L5.0302 6.4715ZM4.41771 5.23004L3.52084 5.67232L3.52092 5.67249L4.41771 5.23004ZM3.57708 5.23004L4.47377 5.6727L4.47395 5.67232L3.57708 5.23004ZM2.96422 6.4715L3.108 7.46111L3.62822 7.38553L3.86091 6.91415L2.96422 6.4715ZM1.59423 6.67053L1.73795 7.66015L1.738 7.66014L1.59423 6.67053ZM1.21593 6.9895L2.16675 7.29926L2.16705 7.29833L1.21593 6.9895ZM1.3344 7.46997L2.03259 6.75406L2.03221 6.75369L1.3344 7.46997ZM2.32555 8.43658L3.31118 8.60553L3.39996 8.08758L3.02374 7.72067L2.32555 8.43658ZM2.09173 9.80072L3.07727 9.97011L3.07735 9.96967L2.09173 9.80072ZM2.27813 10.259L1.69002 11.0678L1.69002 11.0678L2.27813 10.259ZM2.77178 10.2949L3.23655 11.1804L3.23694 11.1801L2.77178 10.2949ZM3.9973 9.65094L4.46252 8.76574L3.99734 8.52127L3.53214 8.76571L3.9973 9.65094ZM5.22265 10.2949L4.75743 11.1801L4.75757 11.1802L5.22265 10.2949ZM5.7163 10.259L5.12886 9.44976L5.12825 9.45021L5.7163 10.259ZM5.9027 9.80072L4.9171 9.96979L4.91715 9.97011L5.9027 9.80072ZM5.66869 8.43658L4.97057 7.72061L4.59421 8.08758L4.68309 8.60566L5.66869 8.43658ZM6.66002 7.46997L5.96221 6.75369L5.9619 6.75399L6.66002 7.46997ZM4.83776 7.93744L5.5359 8.65339L5.53608 8.65323L4.83776 7.93744ZM4.70299 8.35217L3.71731 8.52081L3.71741 8.52137L4.70299 8.35217ZM4.81817 9.02307L4.35318 9.90839L6.14647 10.8502L5.80375 8.85388L4.81817 9.02307ZM4.21538 8.70648L3.74973 9.59145L3.7504 9.5918L4.21538 8.70648ZM3.77941 8.70648L4.24427 9.59187L4.24506 9.59145L3.77941 8.70648ZM3.17608 9.02325L2.19049 8.8541L1.84794 10.85L3.64094 9.90864L3.17608 9.02325ZM3.29125 8.35217L2.30577 8.18239L2.30566 8.18302L3.29125 8.35217ZM3.15648 7.93744L2.4583 8.65336L2.45834 8.65339L3.15648 7.93744ZM2.66869 7.46173L2.52516 6.47208L0.519835 6.76292L1.97051 8.17765L2.66869 7.46173ZM3.34288 7.36395L3.48641 8.3536L3.48663 8.35357L3.34288 7.36395ZM3.69573 7.1076L4.59228 7.55054L4.59246 7.55019L3.69573 7.1076ZM3.99712 6.49695L4.8939 6.05447L3.99726 4.2372L3.10039 6.05437L3.99712 6.49695ZM4.29833 7.10742L5.19512 6.66496L5.19511 6.66495L4.29833 7.10742ZM4.65136 7.36395L4.50778 8.35359L4.50779 8.35359L4.65136 7.36395ZM5.32537 7.46173L6.02368 8.17752L7.47368 6.76292L5.46893 6.47209L5.32537 7.46173ZM7.72961 6.68067C7.5568 6.14848 7.09685 5.76116 6.54359 5.68089L6.25644 7.66017C6.05657 7.63118 5.88995 7.49105 5.82738 7.29833L7.72961 6.68067ZM6.54381 5.68092L5.17399 5.48189L4.88641 7.4611L6.25622 7.66014L6.54381 5.68092ZM5.927 6.02905L5.31451 4.7876L3.52092 5.67249L4.13341 6.91394L5.927 6.02905ZM5.31459 4.78776C5.06728 4.28625 4.55679 3.96875 3.99749 3.96875V5.96875C3.79524 5.96875 3.61031 5.85377 3.52084 5.67232L5.31459 4.78776ZM3.99749 3.96875C3.43863 3.96875 2.92771 4.28585 2.6802 4.78776L4.47395 5.67232C4.38428 5.85416 4.19929 5.96875 3.99749 5.96875V3.96875ZM2.68039 4.78738L2.06753 6.02884L3.86091 6.91415L4.47377 5.6727L2.68039 4.78738ZM2.82045 5.48189L1.45045 5.68092L1.738 7.66014L3.108 7.46111L2.82045 5.48189ZM1.45051 5.68091C0.897338 5.76125 0.437556 6.14867 0.264815 6.68067L2.16705 7.29833C2.10454 7.49085 1.93809 7.63108 1.73795 7.66015L1.45051 5.68091ZM0.265116 6.67974C0.0917691 7.21184 0.235917 7.79591 0.63659 8.18625L2.03221 6.75369C2.17727 6.89501 2.2295 7.10664 2.16675 7.29926L0.265116 6.67974ZM0.636211 8.18588L1.62736 9.1525L3.02374 7.72067L2.03259 6.75406L0.636211 8.18588ZM1.33993 8.26764L1.1061 9.63177L3.07735 9.96967L3.31118 8.60553L1.33993 8.26764ZM1.10618 9.63133C1.01137 10.183 1.23848 10.7395 1.69002 11.0678L2.86624 9.45025C3.0292 9.56875 3.11166 9.77004 3.07727 9.97011L1.10618 9.63133ZM1.69002 11.0678C2.1422 11.3966 2.7417 11.4401 3.23655 11.1804L2.30701 9.40949C2.48581 9.31563 2.70262 9.33128 2.86624 9.45025L1.69002 11.0678ZM3.23694 11.1801L4.46247 10.5362L3.53214 8.76571L2.30662 9.4097L3.23694 11.1801ZM3.53209 10.5361L4.75743 11.1801L5.68786 9.40973L4.46252 8.76574L3.53209 10.5361ZM4.75757 11.1802C5.25589 11.442 5.85511 11.3945 6.30435 11.0679L5.12825 9.45021C5.29037 9.33234 5.50727 9.31485 5.68772 9.40965L4.75757 11.1802ZM6.30374 11.0683C6.75635 10.7398 6.98297 10.1825 6.88825 9.63133L4.91715 9.97011C4.88285 9.77055 4.96482 9.56884 5.12886 9.44976L6.30374 11.0683ZM6.8883 9.63165L6.65429 8.26751L4.68309 8.60566L4.9171 9.96979L6.8883 9.63165ZM6.36681 9.15256L7.35815 8.18595L5.9619 6.75399L4.97057 7.72061L6.36681 9.15256ZM7.35783 8.18625C7.7591 7.79534 7.90195 7.21143 7.72961 6.68067L5.82738 7.29833C5.76527 7.10705 5.81657 6.89558 5.96221 6.75369L7.35783 8.18625ZM4.13961 7.22148C3.79354 7.55895 3.63589 8.04486 3.71731 8.52081L5.68867 8.18354C5.7181 8.35553 5.66115 8.53126 5.5359 8.65339L4.13961 7.22148ZM3.71741 8.52137L3.83258 9.19227L5.80375 8.85388L5.68857 8.18298L3.71741 8.52137ZM5.28315 8.13775L4.68036 7.82116L3.7504 9.5918L4.35318 9.90839L5.28315 8.13775ZM4.68103 7.82151C4.25313 7.59636 3.74166 7.59636 3.31376 7.82151L4.24506 9.59145C4.08998 9.67305 3.90481 9.67305 3.74973 9.59145L4.68103 7.82151ZM3.31455 7.8211L2.71122 8.13787L3.64094 9.90864L4.24427 9.59187L3.31455 7.8211ZM4.16167 9.1924L4.27684 8.52132L2.30566 8.18302L2.19049 8.8541L4.16167 9.1924ZM4.27673 8.52196C4.35901 8.04437 4.20005 7.55832 3.85463 7.22148L2.45834 8.65339C2.33374 8.53189 2.27585 8.35602 2.30577 8.18239L4.27673 8.52196ZM3.85467 7.22152L3.36687 6.74581L1.97051 8.17765L2.4583 8.65336L3.85467 7.22152ZM2.81222 8.45138L3.48641 8.3536L3.19936 6.37431L2.52516 6.47208L2.81222 8.45138ZM3.48663 8.35357C3.96513 8.28406 4.37843 7.9834 4.59228 7.55054L2.79917 6.66467C2.87643 6.5083 3.02569 6.39953 3.19914 6.37434L3.48663 8.35357ZM4.59246 7.55019L4.89385 6.93953L3.10039 6.05437L2.799 6.66502L4.59246 7.55019ZM3.10034 6.93942L3.40155 7.5499L5.19511 6.66495L4.8939 6.05447L3.10034 6.93942ZM3.40154 7.54988C3.61542 7.98338 4.02901 8.28413 4.50778 8.35359L4.79494 6.37431C4.96829 6.39946 5.11783 6.50832 5.19512 6.66496L3.40154 7.54988ZM4.50779 8.35359L5.1818 8.45137L5.46893 6.47209L4.79492 6.37431L4.50779 8.35359ZM4.62705 6.74594L4.13944 7.22165L5.53608 8.65323L6.02368 8.17752L4.62705 6.74594Z" fill="#737791" mask="url(#path-14-inside-7_85_759)"/>
<mask id="path-16-inside-8_85_759" fill="white">
<path d="M14.0541 19.1762C13.8377 19.034 13.5471 19.0942 13.405 19.3106C13.2627 19.5269 13.323 19.8175 13.5394 19.9597C13.9728 20.2445 14.3192 20.6414 14.5412 21.1076C14.6521 21.3411 14.9315 21.4409 15.1657 21.3294C15.3996 21.2182 15.4988 20.9384 15.3876 20.7048C15.0921 20.0837 14.6309 19.5551 14.0541 19.1762Z"/>
</mask>
<path d="M14.0541 19.1762C13.8377 19.034 13.5471 19.0942 13.405 19.3106C13.2627 19.5269 13.323 19.8175 13.5394 19.9597C13.9728 20.2445 14.3192 20.6414 14.5412 21.1076C14.6521 21.3411 14.9315 21.4409 15.1657 21.3294C15.3996 21.2182 15.4988 20.9384 15.3876 20.7048C15.0921 20.0837 14.6309 19.5551 14.0541 19.1762Z" fill="#737791"/>
<path d="M14.0541 19.1762L13.5048 20.0118L13.5051 20.0121L14.0541 19.1762ZM13.405 19.3106L14.2404 19.8603L14.2409 19.8594L13.405 19.3106ZM13.5394 19.9597L12.9901 20.7954L12.9903 20.7955L13.5394 19.9597ZM14.5412 21.1076L15.4443 20.6783L15.4441 20.6778L14.5412 21.1076ZM15.1657 21.3294L14.7364 20.4262L14.7358 20.4265L15.1657 21.3294ZM15.3876 20.7048L16.2907 20.2752L16.2906 20.2751L15.3876 20.7048ZM14.6034 18.3406C13.9251 17.8947 13.0143 18.0836 12.569 18.7618L14.2409 19.8594C14.0799 20.1047 13.7502 20.1732 13.5048 20.0118L14.6034 18.3406ZM12.5696 18.761C12.1231 19.4397 12.3129 20.3502 12.9901 20.7954L14.0887 19.1241C14.333 19.2847 14.4023 19.6141 14.2404 19.8603L12.5696 18.761ZM12.9903 20.7955C13.2716 20.9803 13.4953 21.2371 13.6382 21.5374L15.4441 20.6778C15.1432 20.0457 14.674 19.5086 14.0884 19.124L12.9903 20.7955ZM13.638 21.5369C13.9858 22.2688 14.8619 22.5816 15.5956 22.2322L14.7358 20.4265C15.0011 20.3002 15.3184 20.4134 15.4443 20.6783L13.638 21.5369ZM15.595 22.2325C16.3283 21.884 16.6389 21.0072 16.2907 20.2752L14.4846 21.1344C14.3587 20.8697 14.4709 20.5524 14.7364 20.4262L15.595 22.2325ZM16.2906 20.2751C15.9162 19.4882 15.3322 18.8193 14.6031 18.3404L13.5051 20.0121C13.9295 20.2908 14.268 20.6792 14.4847 21.1345L16.2906 20.2751Z" fill="#737791" mask="url(#path-16-inside-8_85_759)"/>
</g>
<defs>
<clipPath id="clip0_85_759">
<rect width="24" height="24" fill="white"/>
</clipPath>
</defs>
</svg>
