<svg width="50" height="50" viewBox="0 0 50 50" fill="none" xmlns="http://www.w3.org/2000/svg">
<g clip-path="url(#clip0_60_6177)">
<path d="M49.8332 17.2978L26.8581 40.2729C26.6355 40.4954 26.2747 40.4954 26.0521 40.2729L13.1895 27.4103C12.9669 27.1877 12.9669 26.8269 13.1895 26.6043L36.1645 3.6292C36.3871 3.40664 36.7479 3.40664 36.9705 3.6292L49.8331 16.4918C50.0557 16.7144 50.0557 17.0752 49.8332 17.2978Z" fill="#5CC45C"/>
<path d="M49.8331 16.4918L46.3682 13.027L22.5872 36.808L26.052 40.2729C26.2746 40.4954 26.6354 40.4954 26.858 40.2729L49.8331 17.2978C50.0556 17.0752 50.0556 16.7144 49.8331 16.4918Z" fill="#4EAD4E"/>
<path d="M18.1267 28.499C18.6279 27.5716 18.6279 26.443 18.1267 25.5155C18.0594 25.391 18.0788 25.2378 18.1789 25.1377L34.698 8.61862C34.7981 8.51853 34.9513 8.49909 35.0758 8.56648C36.003 9.06774 37.1317 9.06774 38.0593 8.56638C38.1838 8.49909 38.337 8.51853 38.4371 8.61853L44.8437 15.0251C44.9438 15.1252 44.9632 15.2784 44.8958 15.4029C44.3944 16.3304 44.3944 17.4589 44.8958 18.3864C44.9631 18.5109 44.9437 18.6641 44.8437 18.7642L28.3245 35.2834C28.2244 35.3835 28.0712 35.4029 27.9467 35.3356C27.0192 34.8343 25.8906 34.8343 24.9633 35.3356C24.8388 35.4029 24.6856 35.3835 24.5855 35.2834L18.1789 28.8768C18.0788 28.7767 18.0594 28.6234 18.1267 28.499Z" fill="#A0E557"/>
<path d="M44.8958 18.3864C44.3944 17.4589 44.3944 16.3305 44.8958 15.4029C44.9631 15.2784 44.9437 15.1252 44.8437 15.0251L41.1548 11.3362C40.4921 12.3654 40.4921 13.6999 41.1548 14.7291L24.2893 31.5945C23.2601 30.9319 21.9255 30.932 20.8965 31.5945L24.5854 35.2834C24.6854 35.3835 24.8387 35.4028 24.9632 35.3356C25.8905 34.8344 27.019 34.8343 27.9466 35.3357C28.0711 35.4029 28.2243 35.3835 28.3244 35.2834L44.8436 18.7643C44.9437 18.6643 44.9631 18.5109 44.8958 18.3864Z" fill="#93CC4A"/>
<path d="M34.8245 25.2639C36.6543 23.4341 36.6543 20.4674 34.8245 18.6376C32.9947 16.8078 30.028 16.8078 28.1982 18.6376C26.3684 20.4674 26.3684 23.4341 28.1982 25.2639C30.028 27.0937 32.9947 27.0937 34.8245 25.2639Z" fill="#F3E8D7"/>
<path d="M25.955 33.0773L33.0242 26.0081C33.8389 25.1935 34.1853 24.219 33.3706 23.4044C32.0866 21.81 27.3996 23.0886 25.1763 25.3119C24.0983 26.3898 22.8741 27.6143 22.1994 28.2895C21.8692 28.6197 21.4218 28.8053 20.949 28.8053H20.9247C20.1447 28.8053 19.2312 28.05 19.03 27.2964L19.0295 20.7642L20.196 19.5977L21.4776 18.316L26.5679 13.2258C24.4737 12.9911 22.3913 12.8642 21.5835 12.7674C20.6854 12.6598 19.9194 13.0622 19.2225 13.6388L12.706 18.7798C11.7863 19.5406 11.1233 20.5658 10.8058 21.7164C10.0943 24.2934 8.5958 28.8517 7.64473 30.6644L2.89355 35.4155L11.1191 43.6411L13.4068 41.3534C13.8368 40.9234 14.3685 40.6092 14.9524 40.4398L19.7303 38.8311C21.2312 38.3161 22.5524 37.3806 23.5367 36.1358L25.955 33.0773Z" fill="#FCD7C3"/>
<path d="M23.5367 36.1358L25.9549 33.0774L33.0242 26.0082C33.8388 25.1935 34.1852 24.2191 33.3706 23.4045C32.8986 22.8183 31.9667 22.6206 30.8665 22.7152C29.2549 22.8538 27.7532 23.5905 26.6094 24.7342L22.1106 29.2331L19.6923 32.2915C18.7082 33.5362 17.3869 34.4717 15.8859 34.9867L11.1081 36.5955C10.5241 36.7648 9.99233 37.0791 9.56235 37.5091L7.27466 39.7967L11.119 43.6411L13.4067 41.3534C13.8367 40.9234 14.3683 40.6091 14.9523 40.4398L19.7301 38.831C21.2312 38.316 22.5525 37.3804 23.5367 36.1358Z" fill="#FFCDAC"/>
<path d="M9.78494 46.2732L0.264624 36.7527C-0.088208 36.3999 -0.088208 35.8279 0.264624 35.4751L1.94001 33.7997C2.29285 33.4469 2.86482 33.4469 3.21765 33.7997L12.7381 43.3201C13.0909 43.673 13.0909 44.2449 12.7381 44.5978L11.0627 46.2731C10.7098 46.626 10.1378 46.626 9.78494 46.2732Z" fill="#464C50"/>
<path d="M12.7379 43.3201L9.50894 40.0911L6.55591 43.0442L9.78491 46.2732C10.1377 46.626 10.7097 46.626 11.0625 46.2732L12.7378 44.5979C13.0908 44.245 13.0908 43.673 12.7379 43.3201Z" fill="#33393A"/>
<path d="M32.7448 25.788C31.8066 24.8498 30.2854 24.8498 29.3472 25.788L28.2799 26.8554C27.7969 27.3384 27.7969 28.1214 28.2799 28.6044L29.3539 29.6784L32.9945 26.0378L32.7448 25.788Z" fill="#EFEFEF"/>
</g>
<defs>
<clipPath id="clip0_60_6177">
<rect width="50" height="50" fill="white"/>
</clipPath>
</defs>
</svg>
